<svg xmlns="http://www.w3.org/2000/svg" xmlns:xlink="http://www.w3.org/1999/xlink" viewBox="0 0 800 800">
  <defs>
    <style>
      .cls-1 {
        fill: none;
      }

      .cls-2 {
        isolation: isolate;
      }

      .cls-3 {
        clip-path: url(#clip-path);
      }

      .cls-4 {
        fill: #473e53;
      }

      .cls-5 {
        fill: #453b50;
      }

      .cls-6 {
        fill: #42394d;
      }

      .cls-7 {
        clip-path: url(#clip-path-2);
      }

      .cls-8 {
        fill: #756589;
      }

      .cls-9 {
        fill: #726386;
      }

      .cls-10 {
        fill: #706183;
      }

      .cls-11 {
        fill: #6d5f80;
      }

      .cls-12 {
        fill: #6b5c7d;
      }

      .cls-13 {
        fill: #685a7a;
      }

      .cls-14 {
        fill: #665877;
      }

      .cls-15 {
        fill: #635674;
      }

      .cls-16 {
        fill: #615471;
      }

      .cls-17 {
        fill: #5e516e;
      }

      .cls-18 {
        fill: #5b4f6b;
      }

      .cls-19 {
        fill: #594d68;
      }

      .cls-20 {
        fill: #564b65;
      }

      .cls-21 {
        fill: #544962;
      }

      .cls-22 {
        fill: #51465f;
      }

      .cls-23 {
        fill: #4f445c;
      }

      .cls-24 {
        fill: #4c4259;
      }

      .cls-25 {
        fill: #4a4056;
      }

      .cls-26 {
        fill: #493f55;
      }

      .cls-27 {
        clip-path: url(#clip-path-3);
      }

      .cls-28 {
        fill: #77678c;
      }

      .cls-29 {
        fill: #7a6a8f;
      }

      .cls-30 {
        fill: #7c6c92;
      }

      .cls-31 {
        fill: #7f6e95;
      }

      .cls-32 {
        fill: #8e7fa2;
      }

      .cls-33 {
        clip-path: url(#clip-path-4);
      }

      .cls-34 {
        clip-path: url(#clip-path-5);
      }

      .cls-35 {
        clip-path: url(#clip-path-6);
      }

      .cls-36 {
        fill: #40374b;
      }

      .cls-37 {
        fill: #463d52;
      }

      .cls-38 {
        clip-path: url(#clip-path-7);
      }

      .cls-39 {
        fill: #554963;
      }

      .cls-40 {
        clip-path: url(#clip-path-8);
      }

      .cls-41 {
        clip-path: url(#clip-path-9);
      }

      .cls-42 {
        clip-path: url(#clip-path-10);
      }

      .cls-43 {
        clip-path: url(#clip-path-11);
      }

      .cls-44 {
        fill: #9587a7;
      }

      .cls-45 {
        fill: #9a8cab;
      }

      .cls-46 {
        fill: #9e91ae;
      }

      .cls-47 {
        fill: #a195b1;
      }

      .cls-48 {
        fill: #a599b4;
      }

      .cls-49 {
        fill: #a89cb7;
      }

      .cls-50 {
        fill: #aa9fb9;
      }

      .cls-51 {
        fill: #ada2bb;
      }

      .cls-52 {
        fill: #b0a5bd;
      }

      .cls-53 {
        fill: #b2a8bf;
      }

      .cls-54 {
        fill: #b4aac1;
      }

      .cls-55 {
        fill: #b6adc3;
      }

      .cls-56 {
        fill: #b8afc5;
      }

      .cls-57 {
        fill: #bab1c6;
      }

      .cls-58 {
        fill: #bcb4c8;
      }

      .cls-59 {
        fill: #beb6c9;
      }

      .cls-60 {
        clip-path: url(#clip-path-12);
      }
    </style>
    <clipPath id="clip-path">
      <path class="cls-1" d="M315.79,455.48,379,613q14,34.95,28.07,69.89c1.66,4.15,3.88,9.68,5.55,13.82s3.88,9.63,5.52,13.76c3.63,9.13,7.37,18.21,11,27.34,1.18,3,1.49,5.21.64,6.07l-114.45-285A3,3,0,0,0,315.79,455.48Z"/>
    </clipPath>
    <clipPath id="clip-path-2">
      <path class="cls-1" d="M423.65,742.64c-12.11-10.07-28.24-23.5-40.36-33.56-6.08-5-14.18-11.79-20.25-16.84q-30.53-25.38-61-50.75l-20.43-17c-6.13-5.11-14.32-11.91-20.45-17l-20.49-17c-6.15-5.12-14.23-12.1-20.51-17.06s-14.37-11.94-20.52-17.06-14.42-11.92-20.55-17.09-14.39-12-20.56-17.09-14.64-11.69-20.56-17.1-14.41-12-20.58-17.11-13-14.38-20.57-17.1C81.69,465.4,68,446.91,55.64,436.65s-26-28.72-41.09-34.17a5.39,5.39,0,0,0,3.32.8L416.53,734.75A44.66,44.66,0,0,0,423.65,742.64Z"/>
    </clipPath>
    <clipPath id="clip-path-3">
      <path class="cls-1" d="M305.69,458.77c3.22,2.19,7.2,2.57,8.89.87L429,744.61c-1.69,1.71-7.29-2.71-12.5-9.86Z"/>
    </clipPath>
    <clipPath id="clip-path-4">
      <path class="cls-1" d="M313.71,338.91H786s-.35.34-1.06,1.06H313C313.73,339.25,313.94,338.91,313.71,338.91Z"/>
    </clipPath>
    <clipPath id="clip-path-5">
      <path class="cls-1" d="M416.79,54.88,360.37,210.52q-12.92,35.65-25.84,71.3l-10.37,28.6c-1.56,4.29-3.63,10-5.19,14.31s-5.19,9.74-5.19,14.31a3.5,3.5,0,0,1-.76.93L416.32,55C416.78,54.54,416.92,54.52,416.79,54.88Z"/>
    </clipPath>
    <clipPath id="clip-path-6">
      <path class="cls-1" d="M15.86,399.14l40.07-34.43,20-17.22L116,313.05l20-17.22,40.07-34.44,20-17.22,40.08-34.44,40.07-34.44,20-17.21,40.07-34.44,20-17.22,20-17.21c12-10.33,28.45-23.66,40.07-34.44l-.24.23L15.57,399.42A3.9,3.9,0,0,1,15.86,399.14Z"/>
    </clipPath>
    <clipPath id="clip-path-7">
      <path class="cls-1" d="M786,338.91l1.38,70.35c.06,3.53.16,8.23.23,11.75q.17,8.81.34,17.59c0,1.75.1,4.09.11,5.84s.08,4.09.12,5.84.11,4.07.11,5.82a3.71,3.71,0,0,1-1,2.76L784.92,340C785.63,339.25,786,338.9,786,338.91Z"/>
    </clipPath>
    <clipPath id="clip-path-8">
      <path class="cls-1" d="M783.74,460.7H311.47a10.68,10.68,0,0,1-5.78-1.93H779.38A6.37,6.37,0,0,0,783.74,460.7Z"/>
    </clipPath>
    <clipPath id="clip-path-9">
      <path class="cls-1" d="M403.56,71.82c4.93-7.16,10.31-14.34,12-16l-103.3,285a78.56,78.56,0,0,1-8.74,7.06Z"/>
    </clipPath>
    <clipPath id="clip-path-10">
      <path class="cls-1" d="M17.87,403.28c-3.38,0-4.76-1.38-3.07-3.09L415.56,55.77c-1.69,1.71-7.07,8.89-12,16Z"/>
    </clipPath>
    <clipPath id="clip-path-11">
      <path class="cls-1" d="M303.52,347.8a78.56,78.56,0,0,0,8.74-7.06H784.15c-1.69,1.71-4.8,4.87-6.94,7.06Z"/>
    </clipPath>
    <clipPath id="clip-path-12">
      <path class="cls-1" d="M777.21,347.8c2.14-2.19,5.25-5.35,6.94-7.06l2.33,118.9c-1.69,1.7-4.87,1.32-7.1-.87Z"/>
    </clipPath>
  </defs>
  <g id="Слой_2" data-name="Слой 2">
    <g class="cls-2">
      <g class="cls-2">
        <g class="cls-3">
          <g class="cls-2">
            <path class="cls-4" d="M429.8,743.84l-114.45-285a2.69,2.69,0,0,0,.39-.5L430.15,743.23a1.58,1.58,0,0,1-.35.61"/>
            <path class="cls-5" d="M430.15,743.23,315.74,458.36a2.89,2.89,0,0,0,.32-1.94L429.88,739.83a6.38,6.38,0,0,1,.27,3.4"/>
            <path class="cls-6" d="M429.88,739.83,316.06,456.42a4.48,4.48,0,0,0-.27-.94L321.6,470l5.81,14.45h0l5.79,14.42L339,513.22h0l5.77,14.36,5.75,14.33h0l5.74,14.29L362,570.45l5.71,14.21,5.69,14.17h0L379,613,384.69,627h0l5.64,14,5.61,14h0L401.53,669l5.58,13.87h0l5.55,13.82,5.52,13.76h0l5.5,13.7,5.48,13.64h0a21.39,21.39,0,0,1,.72,2.06"/>
          </g>
        </g>
      </g>
      <g class="cls-2">
        <g class="cls-7">
          <g class="cls-2">
            <path class="cls-8" d="M17.87,403.28,416.53,734.75l0,0L17.86,403.28h0"/>
            <path class="cls-9" d="M17.86,403.28l398.69,331.5.06.09L17.82,403.28h0"/>
            <path class="cls-10" d="M17.82,403.28,416.61,734.87l.07.09L17.78,403.28h0"/>
            <path class="cls-11" d="M17.78,403.28,416.68,735l.06.09-399-331.77h.05"/>
            <path class="cls-12" d="M17.73,403.28l399,331.77.07.08L17.69,403.28h0"/>
            <path class="cls-13" d="M17.69,403.28,416.81,735.13l.06.09L17.65,403.28h0"/>
            <path class="cls-14" d="M17.65,403.28,416.87,735.22l.06.08-399.32-332h0"/>
            <path class="cls-15" d="M17.61,403.28l399.32,332,.07.09L17.57,403.28h0"/>
            <path class="cls-16" d="M17.57,403.28,417,735.39l.06.09L17.53,403.28h0"/>
            <path class="cls-17" d="M17.53,403.28l399.53,332.2.07.08L17.49,403.28h0"/>
            <path class="cls-18" d="M17.49,403.28,417.13,735.56l.06.09L17.45,403.28h0"/>
            <path class="cls-19" d="M17.45,403.28,417.19,735.65l.06.08L17.41,403.27h0"/>
            <path class="cls-20" d="M17.41,403.27,417.25,735.73l.08.1-400-332.56h0"/>
            <path class="cls-21" d="M17.37,403.27l400,332.56.13.17L17.29,403.27h.08"/>
            <path class="cls-22" d="M17.29,403.27,417.46,736l.14.18L17.21,403.26h.08"/>
            <path class="cls-23" d="M17.21,403.26,417.6,736.18l.13.17L17.13,403.26h.08"/>
            <path class="cls-24" d="M17.13,403.26l400.6,333.09a1.09,1.09,0,0,1,.13.17L17.05,403.25h.08"/>
            <path class="cls-25" d="M17.05,403.25,417.86,736.52l.14.17L17,403.25h.08"/>
            <path class="cls-4" d="M17,403.25,418,736.69a2.56,2.56,0,0,1,.2.26L16.86,403.24H17"/>
            <path class="cls-5" d="M16.86,403.24,418.2,737l.4.48-402-334.22.22,0"/>
            <path class="cls-6" d="M16.64,403.21l402,334.22a39,39,0,0,0,5,5.21h0L403.5,725.88l-20.21-16.8h0L363,692.24l-20.31-16.88h0l-20.35-16.92-20.38-17h0l-20.43-17-20.45-17h0l-20.49-17-20.51-17.06h0L199.6,556.35l-20.55-17.09h0l-20.56-17.09-20.56-17.1h0L117.35,488l-20.57-17.1h0L76.21,453.75l-20.57-17.1L35.09,419.56,14.55,402.48h0a4,4,0,0,0,2.09.73"/>
          </g>
        </g>
      </g>
      <polygon class="cls-26" points="314.58 459.64 315.35 458.86 429.8 743.84 429.03 744.61 314.58 459.64"/>
      <g class="cls-2">
        <g class="cls-27">
          <g class="cls-2">
            <path class="cls-8" d="M416.53,734.75l-110.84-276,.06,0L416.62,734.88l-.09-.13"/>
            <path class="cls-28" d="M416.62,734.88,305.75,458.81l.1.06L416.78,735.1l-.16-.22"/>
            <path class="cls-29" d="M416.78,735.1,305.85,458.87l.1.07,111,276.38a1.77,1.77,0,0,0-.16-.22"/>
            <path class="cls-30" d="M416.94,735.32,306,458.94l.1.06L417.1,735.53l-.16-.21"/>
            <path class="cls-31" d="M417.1,735.53,306.05,459l.1.06L417.26,735.74l-.16-.21"/>
            <path class="cls-32" d="M417.26,735.74,306.15,459.06l.05,0L417.34,735.84l-.08-.1"/>
            <path class="cls-31" d="M417.34,735.84,306.2,459.09l.06,0L417.44,736l-.1-.13"/>
            <path class="cls-30" d="M417.44,736,306.26,459.13l.06,0L417.54,736.11l-.1-.14"/>
            <path class="cls-29" d="M417.54,736.11,306.32,459.17l.07,0,111.25,277-.1-.13"/>
            <path class="cls-28" d="M417.64,736.24l-111.25-277,.06,0L417.74,736.37l-.1-.13"/>
            <path class="cls-8" d="M417.74,736.37,306.45,459.24l.06,0L417.85,736.49l-.11-.12"/>
            <path class="cls-9" d="M417.85,736.49,306.51,459.28l.07,0L418,736.62l-.1-.13"/>
            <path class="cls-10" d="M418,736.62,306.58,459.32l.06,0,111.41,277.4-.1-.13"/>
            <path class="cls-11" d="M418.05,736.75,306.64,459.35l.1.06L418.21,737l-.16-.2"/>
            <path class="cls-12" d="M418.21,737,306.74,459.41l.14.07L418.42,737.21l-.21-.26"/>
            <path class="cls-13" d="M418.42,737.21,306.88,459.48l.14.07L418.63,737.47l-.21-.26"/>
            <path class="cls-14" d="M418.63,737.47,307,459.55l.14.07L418.85,737.73l-.22-.26"/>
            <path class="cls-15" d="M418.85,737.73,307.16,459.62l.18.09L419.13,738.07l-.28-.34"/>
            <path class="cls-16" d="M419.13,738.07,307.34,459.71l.19.09,111.9,278.62-.3-.35"/>
            <path class="cls-17" d="M419.43,738.42,307.53,459.8l.22.09,112,278.9-.32-.37"/>
            <path class="cls-18" d="M419.75,738.79l-112-278.9.27.11L420.17,739.25l-.42-.46"/>
            <path class="cls-19" d="M420.17,739.25,308,460l.31.11L420.64,739.76l-.47-.51"/>
            <path class="cls-20" d="M420.64,739.76,308.33,460.11l.38.13L421.2,740.35c-.19-.19-.38-.39-.56-.59"/>
            <path class="cls-21" d="M421.2,740.35,308.71,460.24l.5.15,112.73,280.7-.74-.74"/>
            <path class="cls-22" d="M421.94,741.09,309.21,460.39c.22.06.45.11.67.15L422.92,742c-.32-.29-.65-.59-1-.92"/>
            <path class="cls-23" d="M422.92,742l-113-281.47c.31.06.61.1.9.13L424.2,743.08c-.41-.32-.84-.68-1.28-1.07"/>
            <path class="cls-24" d="M424.2,743.08,310.78,460.67a7.37,7.37,0,0,0,1.24,0L425.91,744.24a14.83,14.83,0,0,1-1.71-1.16"/>
            <path class="cls-25" d="M425.91,744.24,312,460.68a5,5,0,0,0,1.56-.37L427.9,745a4.88,4.88,0,0,1-2-.73"/>
            <path class="cls-4" d="M427.9,745,313.58,460.31a3.31,3.31,0,0,0,1-.67L429,744.61a1.36,1.36,0,0,1-1.13.36"/>
          </g>
        </g>
      </g>
      <g class="cls-2">
        <g class="cls-33">
          <g class="cls-2">
            <path class="cls-22" d="M784.92,340H313c.22-.22.39-.41.52-.56H785.47l-.55.56"/>
            <path class="cls-23" d="M785.47,339.41H313.54a1.44,1.44,0,0,0,.25-.39H785.86l-.39.39"/>
            <path class="cls-24" d="M785.86,339H313.79c0-.08,0-.11-.08-.11H786l-.12.11"/>
            <polyline class="cls-25" points="785.98 338.91 313.71 338.91 313.71 338.91 361.22 338.91 408.67 338.91 456.05 338.91 503.36 338.91 550.61 338.91 597.8 338.91 644.93 338.91 692 338.91 739.01 338.91 739.01 338.91 762.5 338.91 785.98 338.91 785.98 338.91"/>
          </g>
        </g>
      </g>
      <g class="cls-2">
        <g class="cls-34">
          <g class="cls-2">
            <path class="cls-6" d="M313,340,416.32,55c.46-.46.6-.48.47-.12h0l-5.1,14.06L406.59,83l-5.12,14.1-5.11,14.12-5.13,14.13-5.13,14.15L381,153.7l-5.14,14.18-5.15,14.2-5.15,14.21-5.16,14.23-5.16,14.24L350.05,239l-5.17,14.26-5.18,14.27-5.17,14.28-5.19,14.29-5.18,14.31L319,324.73,313.78,339h0a3.5,3.5,0,0,1-.76.93"/>
          </g>
        </g>
      </g>
      <g class="cls-2">
        <g class="cls-35">
          <g class="cls-2">
            <path class="cls-4" d="M416.32,55,15.57,399.42a3.9,3.9,0,0,1,.29-.28l20-17.21,20-17.22,20-17.22,20-17.22,20-17.22,20-17.22,20-17.22,20-17.22,20-17.22,20-17.22,20-17.22,20-17.22,20-17.22,20-17.21,20-17.22,20-17.22,20-17.22,20-17.21,20-17.22,20-17.22h0l-.24.23"/>
          </g>
        </g>
      </g>
      <polygon class="cls-36" points="415.56 55.77 416.32 55 313.02 339.97 312.26 340.75 415.56 55.77"/>
      <polygon class="cls-37" points="14.8 400.19 15.57 399.42 416.32 55 415.56 55.77 14.8 400.19"/>
      <g class="cls-2">
        <g class="cls-38">
          <g class="cls-2">
            <path class="cls-6" d="M787.24,458.86,784.92,340c.71-.72,1.06-1.07,1.06-1.06h0l.11,5.82.12,5.84.11,5.84.12,5.85.11,5.87.12,5.86.11,5.88.12,5.87.11,5.88.12,5.88.11,5.88.12,5.88.11,5.88.12,5.87.11,5.87.11,5.86h0l.12,5.86.11,5.84h0l.12,5.84.11,5.82h0a3.71,3.71,0,0,1-1,2.76"/>
          </g>
        </g>
      </g>
      <polygon class="cls-6" points="784.15 340.75 784.92 339.97 787.24 458.86 786.48 459.64 784.15 340.75"/>
      <polygon class="cls-39" points="312.26 340.75 313.02 339.97 784.92 339.97 784.15 340.75 312.26 340.75"/>
      <g class="cls-2">
        <g class="cls-40">
          <g class="cls-2">
            <path class="cls-8" d="M305.69,458.77h0"/>
            <path class="cls-9" d="M305.7,458.78H779.39l0,0H305.74l0,0"/>
            <path class="cls-10" d="M305.74,458.8H779.41l0,0H305.78l0,0"/>
            <path class="cls-11" d="M305.78,458.83H779.44l0,0H305.82l0,0"/>
            <path class="cls-12" d="M305.82,458.85H779.46l0,0H305.86l0,0"/>
            <path class="cls-13" d="M305.86,458.88H779.49l0,0H305.89l0,0"/>
            <path class="cls-14" d="M305.89,458.9H779.52l0,0H305.93l0,0"/>
            <path class="cls-15" d="M305.93,458.93H779.55l0,0H306l0,0"/>
            <path class="cls-16" d="M306,459h473.6l0,0H306l0,0"/>
            <path class="cls-17" d="M306,459H779.6l0,0H306.05l0,0"/>
            <path class="cls-18" d="M306.05,459H779.63l0,0H306.09l0,0"/>
            <path class="cls-19" d="M306.09,459H779.65l0,0H306.13l0,0"/>
            <path class="cls-20" d="M306.13,459.05H779.68l0,0H306.16l0,0"/>
            <path class="cls-21" d="M306.16,459.07H779.71l0,.05H306.23l-.07-.05"/>
            <path class="cls-22" d="M306.23,459.12H779.76l.06.05H306.32l-.09-.05"/>
            <path class="cls-23" d="M306.32,459.17h473.5l.06.05H306.4l-.08-.05"/>
            <path class="cls-24" d="M306.4,459.22H779.88l.06,0H306.49l-.09,0"/>
            <path class="cls-25" d="M306.49,459.27H779.94l.06.05H306.58l-.09-.05"/>
            <path class="cls-4" d="M306.58,459.32H780l.06,0H306.66l-.08,0"/>
            <path class="cls-5" d="M306.66,459.36h473.4l.19.14H306.93l-.27-.14"/>
            <path class="cls-6" d="M306.93,459.5H780.25a6.13,6.13,0,0,0,3.49,1.2H311.47a10.17,10.17,0,0,1-4.54-1.2"/>
          </g>
        </g>
      </g>
      <g class="cls-2">
        <g class="cls-41">
          <g class="cls-2">
            <path class="cls-8" d="M303.52,347.8l100-276,0-.07-100.05,276,0,0"/>
            <path class="cls-9" d="M303.55,347.78l100.05-276,.12-.16L303.62,347.73l-.07,0"/>
            <path class="cls-10" d="M303.62,347.73,403.72,71.59l.11-.17L303.69,347.68l-.07.05"/>
            <path class="cls-11" d="M303.69,347.68,403.83,71.42l.12-.16L303.76,347.63l-.07.05"/>
            <path class="cls-12" d="M303.76,347.63,404,71.26l.11-.17L303.84,347.57l-.08.06"/>
            <path class="cls-13" d="M303.84,347.57,404.06,71.09l.11-.16L303.91,347.52l-.07.05"/>
            <path class="cls-14" d="M303.91,347.52,404.17,70.93l.12-.17L304,347.47l-.08,0"/>
            <path class="cls-15" d="M304,347.47,404.29,70.76l.13-.19L304.07,347.41l-.08.06"/>
            <path class="cls-16" d="M304.07,347.41,404.42,70.57l.14-.19-100.4,277-.09.06"/>
            <path class="cls-17" d="M304.16,347.35l100.4-277,.13-.2L304.25,347.28l-.09.07"/>
            <path class="cls-18" d="M304.25,347.28,404.69,70.18l.14-.19L304.34,347.22l-.09.06"/>
            <path class="cls-19" d="M304.34,347.22,404.83,70l.14-.2L304.42,347.15l-.08.07"/>
            <path class="cls-20" d="M304.42,347.15,405,69.79l.16-.24L304.53,347.08l-.11.07"/>
            <path class="cls-21" d="M304.53,347.08,405.13,69.55l.22-.3L304.67,347l-.14.11"/>
            <path class="cls-22" d="M304.67,347,405.35,69.25l.21-.3L304.81,346.87l-.14.1"/>
            <path class="cls-23" d="M304.81,346.87,405.56,69l.21-.3L305,346.77l-.15.1"/>
            <path class="cls-24" d="M305,346.77,405.77,68.65l.36-.51L305.2,346.59l-.24.18"/>
            <path class="cls-25" d="M305.2,346.59,406.13,68.14c.13-.18.25-.36.38-.53L305.45,346.4l-.25.19"/>
            <path class="cls-4" d="M305.45,346.4,406.51,67.61l.63-.89L305.88,346.08l-.43.32"/>
            <path class="cls-5" d="M305.88,346.08,407.14,66.72l1.1-1.53L306.63,345.51l-.75.57"/>
            <path class="cls-6" d="M306.63,345.51,408.24,65.19a116.77,116.77,0,0,1,7.32-9.42l-103.3,285a63.53,63.53,0,0,1-5.63,4.77"/>
          </g>
        </g>
      </g>
      <g class="cls-2">
        <g class="cls-42">
          <g class="cls-2">
            <path class="cls-8" d="M403.56,71.82,17.87,403.28h-.15L403.78,71.49l-.22.33"/>
            <path class="cls-28" d="M403.78,71.49,17.72,403.28h-.24L404.15,71l-.37.52"/>
            <path class="cls-29" d="M404.15,71,17.48,403.28h-.14l387-332.62-.22.32"/>
            <path class="cls-28" d="M404.37,70.65l-387,332.62h-.1L404.52,70.43l-.15.22"/>
            <path class="cls-8" d="M404.52,70.43,17.24,403.27h-.09l387.52-333-.15.22"/>
            <path class="cls-9" d="M404.67,70.21,17.15,403.26h-.1L404.83,70l-.16.22"/>
            <path class="cls-10" d="M404.83,70,17.05,403.25H17L405,69.77l-.15.22"/>
            <path class="cls-11" d="M405,69.77,17,403.25h-.12L405.17,69.49l-.19.28"/>
            <path class="cls-12" d="M405.17,69.49,16.84,403.24l-.12,0,388.67-334a3.46,3.46,0,0,1-.22.31"/>
            <path class="cls-13" d="M405.39,69.18l-388.67,334h-.13l389-334.34a3.46,3.46,0,0,1-.22.31"/>
            <path class="cls-14" d="M405.61,68.87l-389,334.34-.13,0L405.84,68.55l-.23.32"/>
            <path class="cls-15" d="M405.84,68.55,16.46,403.19l-.15,0,389.82-335-.29.4"/>
            <path class="cls-16" d="M406.13,68.15l-389.82,335-.15,0L406.41,67.75c-.1.13-.19.26-.28.4"/>
            <path class="cls-17" d="M406.41,67.75,16.16,403.14l-.18,0L406.75,67.27l-.34.48"/>
            <path class="cls-18" d="M406.75,67.27,16,403.1l-.19,0L407.14,66.72l-.39.55"/>
            <path class="cls-19" d="M407.14,66.72,15.79,403.06l-.23-.07L407.63,66l-.49.68"/>
            <path class="cls-20" d="M407.63,66,15.56,403l-.25-.08L408.21,65.24l-.58.8"/>
            <path class="cls-21" d="M408.21,65.24,15.31,402.91l-.3-.13L409,64.21l-.75,1"/>
            <path class="cls-22" d="M409,64.21,15,402.78a2.77,2.77,0,0,1-.34-.2L409.93,62.88l-1,1.33"/>
            <path class="cls-23" d="M409.93,62.88,14.67,402.58a1.59,1.59,0,0,1-.35-.33L411.23,61.14l-1.3,1.74"/>
            <path class="cls-24" d="M411.23,61.14,14.32,402.25a1,1,0,0,1-.23-.55L412.92,58.93c-.52.67-1.08,1.41-1.69,2.21"/>
            <path class="cls-25" d="M412.92,58.93,14.09,401.7a1.42,1.42,0,0,1,.23-.91L414.79,56.62c-.5.59-1.14,1.38-1.87,2.31"/>
            <path class="cls-4" d="M414.79,56.62,14.32,400.79a3.93,3.93,0,0,1,.48-.6L415.56,55.77c-.21.21-.46.49-.77.85"/>
          </g>
        </g>
      </g>
      <path class="cls-10" d="M403.56,71.82l-100,276H777.21c.69,35.67,1.47,75.3,2.17,111H305.69l110.84,276L17.87,403.28Z"/>
      <g class="cls-2">
        <g class="cls-43">
          <g class="cls-2">
            <path class="cls-8" d="M777.21,347.8h0"/>
            <path class="cls-28" d="M777.21,347.79H303.53l0,0H777.23l0,0"/>
            <path class="cls-29" d="M777.23,347.77h0"/>
            <path class="cls-30" d="M777.24,347.76H303.58l0,0H777.26l0,0"/>
            <path class="cls-31" d="M777.26,347.74h0"/>
            <path class="cls-32" d="M777.28,347.73H303.62l0,0H777.29v0"/>
            <path class="cls-44" d="M777.29,347.71h0"/>
            <path class="cls-45" d="M777.31,347.7H303.66l0,0H777.32v0"/>
            <path class="cls-46" d="M777.32,347.68H303.69l0,0H777.34l0,0"/>
            <path class="cls-47" d="M777.34,347.66h0"/>
            <path class="cls-48" d="M777.35,347.65H303.73l0,0H777.37l0,0"/>
            <path class="cls-49" d="M777.37,347.63h0"/>
            <path class="cls-50" d="M777.38,347.62H303.78l0,0H777.4l0,0"/>
            <path class="cls-51" d="M777.4,347.6h0"/>
            <path class="cls-52" d="M777.41,347.59H303.82l0,0H777.43l0,0"/>
            <path class="cls-53" d="M777.43,347.57H303.84l0,0H777.44v0"/>
            <path class="cls-54" d="M777.44,347.55h0"/>
            <path class="cls-55" d="M777.46,347.54H303.89l0,0H777.48l0,0"/>
            <path class="cls-56" d="M777.48,347.52h0"/>
            <path class="cls-57" d="M777.49,347.51H303.93l0,0H777.51l0,0"/>
            <path class="cls-58" d="M777.51,347.49H304l0,0H777.52v0"/>
            <path class="cls-59" d="M777.52,347.47H304l0,0H777.55l0,0"/>
            <path class="cls-58" d="M777.55,347.45H304l0,0H777.57l0,0"/>
            <path class="cls-57" d="M777.57,347.43H304.05l0,0H777.59l0,0"/>
            <path class="cls-56" d="M777.59,347.4H304.08l0,0h473.5l0,0"/>
            <path class="cls-55" d="M777.61,347.38H304.11l0,0H777.63l0,0"/>
            <path class="cls-54" d="M777.63,347.36H304.14l0,0H777.66l0,0"/>
            <path class="cls-53" d="M777.66,347.34H304.17l0,0H777.68l0,0"/>
            <path class="cls-52" d="M777.68,347.32H304.2l0,0H777.7l0,0"/>
            <path class="cls-51" d="M777.7,347.29H304.23l0,0H777.72l0,0"/>
            <path class="cls-50" d="M777.72,347.27H304.26l0,0H777.74l0,0"/>
            <path class="cls-49" d="M777.74,347.25H304.29l0,0H777.77l0,0"/>
            <path class="cls-48" d="M777.77,347.23H304.32l0,0H777.79l0,0"/>
            <path class="cls-47" d="M777.79,347.2H304.36l0,0H777.81l0,0"/>
            <path class="cls-46" d="M777.81,347.18H304.39l0,0H777.83l0,0"/>
            <path class="cls-45" d="M777.83,347.16H304.42l0,0h473.4l0,0"/>
            <path class="cls-44" d="M777.85,347.14H304.45l0,0h473.4l0,0"/>
            <path class="cls-32" d="M777.88,347.11H304.48l.1-.07H778l-.07.07"/>
            <path class="cls-31" d="M778,347H304.58l.1-.07H778L778,347"/>
            <path class="cls-30" d="M778,347H304.68l.11-.08h473.3L778,347"/>
            <path class="cls-29" d="M778.09,346.89H304.79l.1-.07H778.17l-.08.07"/>
            <path class="cls-28" d="M778.17,346.82H304.89l.12-.09H778.25l-.08.09"/>
            <path class="cls-8" d="M778.25,346.73H305l.18-.14h473.2l-.14.14"/>
            <path class="cls-9" d="M778.39,346.59H305.19l.19-.13H778.52l-.13.13"/>
            <path class="cls-10" d="M778.52,346.46H305.38l.21-.16H778.68l-.16.16"/>
            <path class="cls-11" d="M778.68,346.3H305.59l.24-.18h473l-.18.18"/>
            <path class="cls-12" d="M778.86,346.12h-473l.27-.21h473l-.2.21"/>
            <path class="cls-13" d="M779.06,345.91h-473l.31-.24H779.29l-.23.24"/>
            <path class="cls-14" d="M779.29,345.67H306.41l.38-.29H779.58l-.29.29"/>
            <path class="cls-15" d="M779.58,345.38H306.79l.45-.34H779.92l-.34.34"/>
            <path class="cls-16" d="M779.92,345H307.24l.54-.43H780.34l-.42.43"/>
            <path class="cls-17" d="M780.34,344.61H307.78l.65-.52H780.85l-.51.52"/>
            <path class="cls-18" d="M780.85,344.09H308.43l.81-.66H781.5l-.65.66"/>
            <path class="cls-19" d="M781.5,343.43H309.24c.32-.27.64-.53.93-.79h472.1l-.77.78"/>
            <path class="cls-20" d="M782.27,342.64H310.17c.36-.3.7-.6,1-.88h472l-.87.89"/>
            <path class="cls-21" d="M783.14,341.76h-472c.35-.31.67-.61.93-.87H784c-.26.26-.55.56-.87.87"/>
            <path class="cls-22" d="M784,340.89H312.11l.15-.15H784.15l-.14.15"/>
          </g>
        </g>
      </g>
      <g class="cls-2">
        <g class="cls-60">
          <g class="cls-2">
            <path class="cls-8" d="M779.38,458.77l-2.17-111,0-.05,2.17,111.07,0-.05"/>
            <path class="cls-9" d="M779.43,458.82l-2.17-111.07.14-.15L779.57,459l-.14-.14"/>
            <path class="cls-10" d="M779.57,459,777.4,347.6l.13-.14,2.19,111.62-.15-.12"/>
            <path class="cls-11" d="M779.72,459.08l-2.19-111.62.07-.06,2.18,111.74-.06-.06"/>
            <path class="cls-12" d="M779.78,459.14,777.6,347.4l.06-.07,2.19,111.86-.07-.05"/>
            <path class="cls-13" d="M779.85,459.19l-2.19-111.86.06-.06,2.19,112-.06-.06"/>
            <path class="cls-14" d="M779.91,459.25l-2.19-112,.07-.06L780,459.3l-.07-.05"/>
            <path class="cls-15" d="M780,459.3l-2.19-112.09.06-.07,2.2,112.21-.07-.05"/>
            <path class="cls-16" d="M780.05,459.35l-2.2-112.21.09-.09,2.19,112.37-.08-.07"/>
            <path class="cls-17" d="M780.13,459.42l-2.19-112.37L778,347l2.2,112.53-.1-.07"/>
            <path class="cls-18" d="M780.23,459.49,778,347l.1-.1,2.2,112.7-.1-.07"/>
            <path class="cls-19" d="M780.33,459.56l-2.2-112.7.1-.1,2.2,112.87-.1-.07"/>
            <path class="cls-20" d="M780.43,459.63l-2.2-112.87.15-.15,2.21,113.12-.16-.1"/>
            <path class="cls-21" d="M780.59,459.73l-2.21-113.12.15-.16,2.21,113.37-.15-.09"/>
            <path class="cls-22" d="M780.74,459.82l-2.21-113.37.19-.2L781,459.94l-.21-.12"/>
            <path class="cls-23" d="M781,459.94l-2.23-113.69L779,346l2.23,114.06-.24-.13"/>
            <path class="cls-24" d="M781.19,460.07,779,346l.35-.36,2.24,114.58-.36-.16"/>
            <path class="cls-25" d="M781.55,460.23l-2.24-114.58c.18-.17.35-.35.53-.53l2.26,115.32a5.2,5.2,0,0,1-.55-.21"/>
            <path class="cls-4" d="M782.1,460.44l-2.26-115.32.88-.9L783,460.65a7.32,7.32,0,0,1-.9-.21"/>
            <path class="cls-5" d="M783,460.65l-2.28-116.43c.6-.6,1.18-1.2,1.72-1.75l2.31,118.12a4.86,4.86,0,0,1-1.75.06"/>
            <path class="cls-6" d="M784.75,460.59l-2.31-118.12,1.71-1.73,2.33,118.9a3.61,3.61,0,0,1-1.73.95"/>
          </g>
        </g>
      </g>
    </g>
  </g>
</svg>
