<svg xmlns="http://www.w3.org/2000/svg" xmlns:xlink="http://www.w3.org/1999/xlink" viewBox="0 0 800 800">
  <defs>
    <style>
      .cls-1 {
        fill: none;
      }

      .cls-2 {
        isolation: isolate;
      }

      .cls-3 {
        clip-path: url(#clip-path);
      }

      .cls-4 {
        fill: #22577a;
      }

      .cls-5 {
        fill: #215576;
      }

      .cls-6 {
        fill: #205272;
      }

      .cls-7 {
        fill: #1f4f6e;
      }

      .cls-8 {
        clip-path: url(#clip-path-2);
      }

      .cls-9 {
        fill: #2d74a1;
      }

      .cls-10 {
        fill: #2c719d;
      }

      .cls-11 {
        fill: #2b6e99;
      }

      .cls-12 {
        fill: #2a6b95;
      }

      .cls-13 {
        fill: #296891;
      }

      .cls-14 {
        fill: #28668d;
      }

      .cls-15 {
        fill: #276389;
      }

      .cls-16 {
        fill: #256085;
      }

      .cls-17 {
        fill: #245d81;
      }

      .cls-18 {
        fill: #235a7d;
      }

      .cls-19 {
        fill: #1e4c6a;
      }

      .cls-20 {
        fill: #1d4966;
      }

      .cls-21 {
        fill: #3280b2;
      }

      .cls-22 {
        clip-path: url(#clip-path-3);
      }

      .cls-23 {
        fill: #2e76a5;
      }

      .cls-24 {
        fill: #2f79a9;
      }

      .cls-25 {
        fill: #307cac;
      }

      .cls-26 {
        fill: #327fb0;
      }

      .cls-27 {
        fill: #3382b4;
      }

      .cls-28 {
        fill: #3485b8;
      }

      .cls-29 {
        fill: #3587bc;
      }

      .cls-30 {
        fill: #368ac0;
      }

      .cls-31 {
        fill: #378dc4;
      }

      .cls-32 {
        fill: #4f9bcb;
      }

      .cls-33 {
        clip-path: url(#clip-path-4);
      }

      .cls-34 {
        clip-path: url(#clip-path-5);
      }

      .cls-35 {
        clip-path: url(#clip-path-6);
      }

      .cls-36 {
        clip-path: url(#clip-path-7);
      }

      .cls-37 {
        fill: #59a0ce;
      }

      .cls-38 {
        fill: #61a5d0;
      }

      .cls-39 {
        fill: #67a8d2;
      }

      .cls-40 {
        fill: #6dacd4;
      }

      .cls-41 {
        fill: #72afd5;
      }

      .cls-42 {
        fill: #76b1d7;
      }

      .cls-43 {
        fill: #7bb4d8;
      }

      .cls-44 {
        fill: #7fb6d9;
      }

      .cls-45 {
        fill: #83b8da;
      }

      .cls-46 {
        fill: #87badb;
      }

      .cls-47 {
        fill: #8abcdd;
      }

      .cls-48 {
        fill: #8ebede;
      }

      .cls-49 {
        fill: #91c0de;
      }

      .cls-50 {
        fill: #94c2df;
      }

      .cls-51 {
        fill: #97c4e0;
      }

      .cls-52 {
        fill: #9ac5e1;
      }

      .cls-53 {
        fill: #9dc7e2;
      }

      .cls-54 {
        fill: #a0c9e3;
      }

      .cls-55 {
        fill: #a2cae4;
      }

      .cls-56 {
        clip-path: url(#clip-path-8);
      }

      .cls-57 {
        clip-path: url(#clip-path-9);
      }

      .cls-58 {
        clip-path: url(#clip-path-10);
      }

      .cls-59 {
        clip-path: url(#clip-path-11);
      }

      .cls-60 {
        clip-path: url(#clip-path-12);
      }

      .cls-61 {
        clip-path: url(#clip-path-13);
      }

      .cls-62 {
        clip-path: url(#clip-path-14);
      }

      .cls-63 {
        clip-path: url(#clip-path-15);
      }

      .cls-64 {
        clip-path: url(#clip-path-16);
      }

      .cls-65 {
        clip-path: url(#clip-path-17);
      }

      .cls-66 {
        clip-path: url(#clip-path-18);
      }

      .cls-67 {
        clip-path: url(#clip-path-19);
      }

      .cls-68 {
        clip-path: url(#clip-path-20);
      }

      .cls-69 {
        clip-path: url(#clip-path-21);
      }

      .cls-70 {
        clip-path: url(#clip-path-22);
      }
    </style>
    <clipPath id="clip-path">
      <path class="cls-1" d="M324.51,541.42q1.33,40.43,2.68,80.84c.07,2.14.16,5,.23,7.15.14,4.25.4,9.92.47,14.18s.4,9.8.47,14l.45,13.83c.14,4.09.39,9.54.46,13.63a13.9,13.9,0,0,1-.08,2,9,9,0,0,1-.36,1.73,6.46,6.46,0,0,1-.64,1.43,4.21,4.21,0,0,1-.92,1l-4.82-145.67a5.56,5.56,0,0,0,.92-.89,4.86,4.86,0,0,0,.66-1,5,5,0,0,0,.38-1.1A4.76,4.76,0,0,0,324.51,541.42Z"/>
    </clipPath>
    <clipPath id="clip-path-2">
      <path class="cls-1" d="M320.45,690.86c-8.84-8.6-20.62-20.06-29.47-28.65l-14.79-14.39c-4.45-4.32-10.36-10.11-14.83-14.42S251,623.29,246.5,619s-10.37-10.18-14.89-14.48L216.7,590c-4.49-4.36-10.36-10.27-14.94-14.53-9.18-8.53-21-20.31-29.93-29.1s-21-20.41-30-29.16l-15-14.59-15-14.59c-9-8.76-21.07-20.37-30-29.18-4.47-4.41-10.5-10.21-15-14.59s-10.28-10.42-15-14.57-10.49-10.19-15-14.56-10.2-10.47-15-14.55a1.36,1.36,0,0,0,.36.25,2.63,2.63,0,0,0,.5.18,5.06,5.06,0,0,0,.65.12c.23,0,.5,0,.78,0l293.13,285c.22.49.45,1,.69,1.4s.5.86.76,1.26.54.75.82,1.09S320.16,690.57,320.45,690.86Z"/>
    </clipPath>
    <clipPath id="clip-path-3">
      <path class="cls-1" d="M312.68,546a5.92,5.92,0,0,0,1.93,1.26,7,7,0,0,0,4.59.23,6.31,6.31,0,0,0,2.1-1.06l4.82,145.68a3,3,0,0,1-2.11.64,4.94,4.94,0,0,1-2.36-.91,10.2,10.2,0,0,1-2.33-2.25,17.12,17.12,0,0,1-2-3.42Z"/>
    </clipPath>
    <clipPath id="clip-path-4">
      <path class="cls-1" d="M457.57,393.93c4.66,4.57,10.92,10.62,15.56,15.21,2.31,2.29,5.43,5.3,7.75,7.58s5.42,5.27,7.73,7.55c4.59,4.53,10.77,10.52,15.38,15l22.87,22.35L556.93,491c2.22,2.18,5.21,5.07,7.42,7.26,4.4,4.35,10.33,10.09,14.75,14.41L600.92,534c2.15,2.1,5.05,4.89,7.18,7a6.27,6.27,0,0,1,1,1.26,3.33,3.33,0,0,1,.44,1.23,2.27,2.27,0,0,1-.17,1.15,2.78,2.78,0,0,1-.82,1L456.23,396.8a6.31,6.31,0,0,0,.95-.86,3.09,3.09,0,0,0,.54-.79,1.31,1.31,0,0,0,.13-.67A.94.94,0,0,0,457.57,393.93Z"/>
    </clipPath>
    <clipPath id="clip-path-5">
      <path class="cls-1" d="M309.2,102.06q2.78,72.38,5.57,144.75,0-.09-.15-.06a1.74,1.74,0,0,0-.41.18c-.18.1-.41.24-.68.42s-.58.41-.93.68L307,101.23a3.22,3.22,0,0,1,.94-.52,1,1,0,0,1,.69,0,.85.85,0,0,1,.44.47A2.59,2.59,0,0,1,309.2,102.06Z"/>
    </clipPath>
    <clipPath id="clip-path-6">
      <path class="cls-1" d="M602,547.89l-155.46-.06q-64.67,0-129.33-.06a7.45,7.45,0,0,1-1.25-.11,7,7,0,0,1-1.21-.34,5.74,5.74,0,0,1-1.11-.55,6,6,0,0,1-1-.77l280.67.12c.71.29,1.44.55,2.18.77s1.48.41,2.22.56,1.47.26,2.18.33S601.35,547.89,602,547.89Z"/>
    </clipPath>
    <clipPath id="clip-path-7">
      <path class="cls-1" d="M445,401.15a13.7,13.7,0,0,0,2.51-.27,20.62,20.62,0,0,0,2.73-.75,21.35,21.35,0,0,0,2.63-1.1,14.4,14.4,0,0,0,2.21-1.36L607.44,546.55a6.1,6.1,0,0,1-2.51,1.06,14.6,14.6,0,0,1-3.48.27,22.08,22.08,0,0,1-4-.5,24.12,24.12,0,0,1-4.09-1.26Z"/>
    </clipPath>
    <clipPath id="clip-path-8">
      <path class="cls-1" d="M22.38,398.5C30.83,389.65,42,377.75,50.57,369s19.74-20.66,28.2-29.52l14.1-14.76c8.47-8.85,19.76-20.66,28.22-29.52,4.23-4.43,11.83-9.08,14.11-14.77s9.88-10.34,14.11-14.77l28.23-29.54,14.12-14.77,28.23-29.55,28.24-29.55,28.24-29.55,28.23-29.55a22.68,22.68,0,0,0-1.85,2.28c-.64.87-1.27,1.85-1.89,2.89s-1.21,2.15-1.75,3.27-1,2.26-1.45,3.38L24.19,401.14a5.24,5.24,0,0,1-1.58-.2,1.51,1.51,0,0,1-.84-.55.94.94,0,0,1-.09-.84A2.77,2.77,0,0,1,22.38,398.5Z"/>
    </clipPath>
    <clipPath id="clip-path-9">
      <path class="cls-1" d="M297.66,115a40.25,40.25,0,0,1,1.74-4c.66-1.3,1.37-2.58,2.11-3.74a31.66,31.66,0,0,1,2.22-3.12,12.08,12.08,0,0,1,2.07-2.06l5.65,146.8c-.63.48-1.34,1-2.08,1.65s-1.51,1.27-2.27,1.94-1.49,1.34-2.18,2-1.3,1.26-1.82,1.81Z"/>
    </clipPath>
    <clipPath id="clip-path-10">
      <path class="cls-1" d="M631.86,393.72,647.46,409l76.48,74.73,14.93,14.59c4.43,4.33,10.37,10.08,14.78,14.44l7.33,7.16c2.19,2.14,5.12,5,7.29,7.13s5.07,5,7.25,7.08,5,5,7.2,7a5.87,5.87,0,0,1,1,1.26,3.09,3.09,0,0,1,.45,1.22,2.11,2.11,0,0,1-.16,1.14,2.68,2.68,0,0,1-.81,1L630.56,396.59a7.45,7.45,0,0,0,.94-.86A3.17,3.17,0,0,0,632,395a1.46,1.46,0,0,0,.12-.68A1,1,0,0,0,631.86,393.72Z"/>
    </clipPath>
    <clipPath id="clip-path-11">
      <path class="cls-1" d="M679.35,547.77,664.22,533l-7.57-7.4-15.15-14.8L626.34,496l-7.57-7.4-15.14-14.8c-4.54-4.43-10.59-10.34-15.12-14.78L581,451.63l-15.07-14.72c-4.5-4.41-10.51-10.28-15-14.68l-7.48-7.32-14.93-14.58a1.52,1.52,0,0,0,.37.26,2.73,2.73,0,0,0,.51.19,5.23,5.23,0,0,0,.66.12c.24,0,.51,0,.8,0L679.41,546.16a4,4,0,0,0-.18.56,3,3,0,0,0-.07.46,1.2,1.2,0,0,0,0,.35A.58.58,0,0,0,679.35,547.77Z"/>
    </clipPath>
    <clipPath id="clip-path-12">
      <path class="cls-1" d="M314.68,246.74l284.67,0a.48.48,0,0,1,.32.08c.06.05.06.13,0,.24a1.66,1.66,0,0,1-.33.4,6.52,6.52,0,0,1-.67.56L312.6,248q.42-.33.78-.57l.6-.4.44-.24A.87.87,0,0,1,314.68,246.74Z"/>
    </clipPath>
    <clipPath id="clip-path-13">
      <path class="cls-1" d="M599.44,247.41q-64.07,66.87-128.11,133.76l-7.13,7.44c-2.13,2.23-7.12,4.35-7.12,7.44l-.19.19-.2.18-.22.19-.24.19L598.68,248.05l.23-.18a1.93,1.93,0,0,0,.21-.17l.17-.15Z"/>
    </clipPath>
    <clipPath id="clip-path-14">
      <path class="cls-1" d="M776.7,548l-96.91,0a.61.61,0,0,1-.39-.12.56.56,0,0,1-.21-.33,1.44,1.44,0,0,1,0-.55,3.69,3.69,0,0,1,.22-.77l88.64,0c.71.3,1.44.55,2.18.78s1.48.4,2.21.55,1.47.26,2.18.34S776,548,776.7,548Z"/>
    </clipPath>
    <clipPath id="clip-path-15">
      <path class="cls-1" d="M619.39,400.94a12.85,12.85,0,0,0,2.51-.28,20.55,20.55,0,0,0,2.73-.74,21.24,21.24,0,0,0,2.62-1.11,13.31,13.31,0,0,0,2.18-1.35L782.1,546.63a6.21,6.21,0,0,1-2.49,1.06,14.51,14.51,0,0,1-3.47.27,23.24,23.24,0,0,1-4-.5,24.33,24.33,0,0,1-4.08-1.27Z"/>
    </clipPath>
    <clipPath id="clip-path-16">
      <path class="cls-1" d="M303.1,256.27c.52-.55,1.14-1.16,1.82-1.81s1.43-1.32,2.18-2,1.53-1.33,2.27-1.94,1.45-1.17,2.08-1.65l286.1,0a26.17,26.17,0,0,1-2.49,1.65c-1,.61-2.18,1.27-3.43,1.94s-2.59,1.35-3.93,2-2.7,1.26-4,1.8Z"/>
    </clipPath>
    <clipPath id="clip-path-17">
      <path class="cls-1" d="M583.72,256.3c1.28-.54,2.64-1.16,4-1.8s2.68-1.33,3.93-2,2.42-1.33,3.43-1.94a26.17,26.17,0,0,0,2.49-1.65L455.09,397.67a14.4,14.4,0,0,1-2.21,1.36,21.35,21.35,0,0,1-2.63,1.1,20.62,20.62,0,0,1-2.73.75,13.7,13.7,0,0,1-2.51.27Z"/>
    </clipPath>
    <clipPath id="clip-path-18">
      <path class="cls-1" d="M773.93,247.14Q709.79,314.07,645.64,381l-14.27,14.89-.18.18-.19.17-.21.19-.23.18L773.21,247.77l.22-.18.2-.16.16-.15A1.84,1.84,0,0,0,773.93,247.14Z"/>
    </clipPath>
    <clipPath id="clip-path-19">
      <path class="cls-1" d="M676.83,246.53l97-.05a.53.53,0,0,1,.33.08.21.21,0,0,1,0,.24,1.57,1.57,0,0,1-.32.4,7.59,7.59,0,0,1-.66.57l-99.75,0a6.22,6.22,0,0,1,.85-.56,5.14,5.14,0,0,1,1.7-.64A3.86,3.86,0,0,1,676.83,246.53Z"/>
    </clipPath>
    <clipPath id="clip-path-20">
      <path class="cls-1" d="M529,398.2l78.32-81.75,14.26-14.88,7.12-7.44,14.26-14.88,14.25-14.88,7.13-7.44c2.14-2.24,7.13-4.35,7.13-7.44a8.07,8.07,0,0,0-1.18,1.57,7.91,7.91,0,0,0-.74,1.73,6.08,6.08,0,0,0-.23,1.72,4,4,0,0,0,.33,1.55L530.8,400.94a5.44,5.44,0,0,1-1.62-.21,1.51,1.51,0,0,1-.86-.58,1,1,0,0,1-.09-.86A3,3,0,0,1,529,398.2Z"/>
    </clipPath>
    <clipPath id="clip-path-21">
      <path class="cls-1" d="M758.29,256c1.29-.55,2.65-1.17,4-1.82s2.68-1.32,3.92-2,2.42-1.33,3.43-1.94,1.85-1.18,2.47-1.65L629.43,397.46a13.31,13.31,0,0,1-2.18,1.35,21.24,21.24,0,0,1-2.62,1.11,20.55,20.55,0,0,1-2.73.74,12.85,12.85,0,0,1-2.51.28Z"/>
    </clipPath>
    <clipPath id="clip-path-22">
      <path class="cls-1" d="M669.6,256.06a4.17,4.17,0,0,1-.33-1.81,6.52,6.52,0,0,1,.4-2,8,8,0,0,1,1.06-1.94,7.86,7.86,0,0,1,1.61-1.65l99.76,0c-.62.47-1.47,1-2.47,1.65s-2.18,1.27-3.43,1.94-2.58,1.35-3.92,2-2.7,1.27-4,1.82Z"/>
    </clipPath>
  </defs>
  <g id="Слой_2" data-name="Слой 2">
    <g class="cls-2">
      <g class="cls-2">
        <g class="cls-3">
          <g class="cls-2">
            <path class="cls-4" d="M327.27,691.22l-4.82-145.67.27-.22.26-.24.23-.24.22-.26,4.82,145.5a3.62,3.62,0,0,1-.22.32,2.37,2.37,0,0,1-.23.3,2.23,2.23,0,0,1-.26.27l-.27.24"/>
            <path class="cls-5" d="M328.25,690.09l-4.82-145.5.23-.31c.08-.11.14-.22.21-.33s.12-.22.17-.33a2.63,2.63,0,0,0,.15-.35L329,688.18c0,.18-.09.36-.14.53s-.11.33-.18.49a3.76,3.76,0,0,1-.2.46c-.07.15-.14.29-.22.43"/>
            <path class="cls-6" d="M329,688.18l-4.8-144.91a2.49,2.49,0,0,0,.11-.29c0-.1.06-.2.08-.3s.05-.21.07-.31,0-.2,0-.31l.24,7.44.25,7.42.24,7.4.25,7.38.24,7.36.25,7.34.24,7.32.24,7.29.24,7.26.24,7.24.24,7.21.24,7.19.23,7.15.24,7.12.23,7.09.24,7.05.23,7,.23,7,.23,6.95.23,6.91c0,.18,0,.35,0,.53s0,.34-.05.5-.05.33-.08.49-.06.32-.1.47"/>
            <path class="cls-7" d="M329.26,686.19h0l-.23-6.91-.23-6.95-.23-7-.23-7-.24-7.05-.23-7.09-.24-7.12-.23-7.15-.24-7.19-.24-7.21-.24-7.24-.24-7.26-.24-7.29L326,586.4l-.25-7.34-.24-7.36-.25-7.38-.24-7.4-.25-7.42-.24-7.44s0-.1,0-.16a.81.81,0,0,0,0-.16v-.32l.25,7.49.25,7.46h0l.24,7.44.25,7.42h0l.24,7.38L326,586h0l.24,7.32.24,7.29.24,7.26.24,7.23.24,7.19.23,7.15h0l.24,7.11.23,7.07h0l.24,7,.23,7h0l.23,6.94.22,6.89h0l.23,6.84.23,6.79h0v.85c0,.1,0,.19,0,.28"/>
          </g>
        </g>
      </g>
      <g class="cls-2">
        <g class="cls-8">
          <g class="cls-2">
            <polyline class="cls-9" points="24.19 401.14 317.32 686.17 317.32 686.18 317.32 686.18 317.32 686.19 317.33 686.19 24.18 401.14 24.18 401.14 24.19 401.14 24.19 401.14 24.19 401.14"/>
            <path class="cls-10" d="M24.18,401.14,317.33,686.19v.08L24.14,401.14h0"/>
            <path class="cls-11" d="M24.14,401.14,317.36,686.27v0h0v0L24.09,401.14h.05"/>
            <path class="cls-12" d="M24.09,401.14l293.3,285.2v.06h0L24.05,401.14h0"/>
            <path class="cls-13" d="M24.05,401.14l14.74,14.33,14.78,14.37,14.8,14.39L83.2,458.65,98,473.08l14.84,14.44L127.73,502l14.84,14.43,14.82,14.41,14.8,14.4L187,559.55l14.74,14.33,14.69,14.29L231,602.4l14.59,14.19,14.52,14.12,14.45,14,14.37,14,14.28,13.89,14.19,13.79v.08L24,401.14h0"/>
            <path class="cls-14" d="M24,401.14,317.46,686.49v0h0v0L24,401.13h0"/>
            <path class="cls-15" d="M24,401.13,317.5,686.56v.06h0L23.93,401.13h0"/>
            <path class="cls-16" d="M23.93,401.13l293.6,285.5v.08L23.89,401.13h0"/>
            <path class="cls-17" d="M23.89,401.13,317.57,686.71h0v.06L23.84,401.13h.05"/>
            <path class="cls-18" d="M23.84,401.13,317.6,686.78v0h0v0h0L303.4,673l-14.32-13.93-14.41-14L260.19,631l-14.55-14.15L231,602.63l-14.67-14.26-14.71-14.31-14.76-14.35L172.1,545.33l-14.82-14.41-14.83-14.43-14.86-14.44L112.73,487.6,97.87,473.15,83,458.71,68.18,444.28,53.36,429.87l-14.8-14.39L23.8,401.13h0"/>
            <path class="cls-4" d="M23.8,401.13,317.64,686.85v0h0v0L23.76,401.13h0"/>
            <path class="cls-5" d="M23.76,401.13,317.67,686.92l0,0,0,0,0,0v0l-294.06-286h.08"/>
            <path class="cls-6" d="M23.68,401.12l14.77,14.36,14.81,14.4L68.08,444.3l14.85,14.44,14.86,14.45,14.87,14.45,14.87,14.46,14.86,14.45L157.23,531l14.83,14.41,14.8,14.39,14.76,14.36,14.73,14.32L231,602.74,245.65,617l14.57,14.17,14.5,14.1,14.42,14,14.35,14,14.25,13.87,0,0,0,0,0,.05,0,0L23.59,401.12h.09"/>
            <path class="cls-7" d="M23.59,401.12,317.83,687.24l0,0,0,.05,0,0,0,0L23.49,401.11h.1"/>
            <path class="cls-19" d="M23.49,401.11l294.43,286.3,0,0,0,0,0,0,0,0L23.4,401.1h.09"/>
            <path class="cls-20" d="M23.4,401.1,318,687.58c.18.33.37.65.56.95s.39.59.6.87.41.53.62.77a8.63,8.63,0,0,0,.65.69h0l-14.71-14.31L291,662.21h0l-14.79-14.39L261.36,633.4h0L246.5,619l-14.89-14.48h0L216.7,590l-14.94-14.53h0l-15-14.54-15-14.56h0l-15-14.58-15-14.58h0l-15-14.59-15-14.59h0l-15-14.59-15-14.59h0l-15-14.59-15-14.57h0l-15-14.56-15-14.55h0a1,1,0,0,0,.26.19,2.53,2.53,0,0,0,.33.16,2.58,2.58,0,0,0,.42.12l.49.08"/>
          </g>
        </g>
      </g>
      <polygon class="cls-21" points="321.3 546.43 322.45 545.55 327.27 691.22 326.12 692.11 321.3 546.43"/>
      <g class="cls-2">
        <g class="cls-22">
          <g class="cls-2">
            <path class="cls-9" d="M317.32,686.17,312.68,546h0l4.64,140.21h0v0h0v0"/>
            <path class="cls-23" d="M317.34,686.23,312.7,546h0l4.65,140.25v0h0v0"/>
            <path class="cls-24" d="M317.38,686.3l-4.65-140.25h0l4.65,140.29h0v-.06"/>
            <path class="cls-25" d="M317.41,686.37l-4.65-140.29h0l4.65,140.34v-.08"/>
            <path class="cls-26" d="M317.44,686.45l-4.65-140.34h0l4.65,140.38v-.06h0"/>
            <path class="cls-27" d="M317.48,686.52l-4.65-140.38h0l4.65,140.42v0h0v0"/>
            <path class="cls-28" d="M317.51,686.59l-4.65-140.42h0l4.65,140.46v0h0v0"/>
            <path class="cls-29" d="M317.54,686.66,312.89,546.2h0l4.66,140.5v0h0v0"/>
            <path class="cls-30" d="M317.58,686.73l-4.66-140.5h0l4.65,140.54v0h0v0"/>
            <path class="cls-31" d="M317.61,686.8,313,546.26h0l4.66,140.59v0h0v0"/>
            <path class="cls-32" d="M317.65,686.87,313,546.28l0,0,0,0,0,0,0,0,4.66,140.72,0-.06,0,0,0-.05,0-.06"/>
            <path class="cls-31" d="M317.75,687.09l-4.66-140.72h0l0,0h0l0,0,4.66,140.8,0,0,0,0,0,0,0,0"/>
            <path class="cls-30" d="M317.83,687.23l-4.66-140.8h0l0,0h0l4.67,140.9,0,0,0,0,0,0,0,0"/>
            <path class="cls-29" d="M317.91,687.38l-4.67-140.9,0,0h0v0l4.67,141,0,0v0l0,0,0,0"/>
            <path class="cls-28" d="M318,687.52l-4.67-141h0l0,0h0l4.67,141.07,0,0,0,0,0,0,0,0"/>
            <path class="cls-27" d="M318.06,687.66l-4.67-141.07,0,0,0,0,0,0,0,0,4.67,141.21,0-.06,0-.05,0,0,0-.06"/>
            <path class="cls-26" d="M318.18,687.88l-4.67-141.21,0,0,0,0,0,0,0,0,4.68,141.34,0-.05,0-.06,0-.05,0,0"/>
            <path class="cls-25" d="M318.31,688.09l-4.68-141.34,0,0,0,0,0,0,0,0,4.68,141.47,0,0,0-.06,0-.05,0,0"/>
            <path class="cls-24" d="M318.43,688.3l-4.68-141.47,0,0,0,0,0,0,0,0,4.7,141.65-.05-.07,0-.07,0-.06-.05-.07"/>
            <path class="cls-23" d="M318.61,688.57l-4.7-141.65,0,0,.05,0,0,0,.05,0,4.7,141.84-.05-.07-.05-.07-.05-.08,0-.07"/>
            <path class="cls-9" d="M318.8,688.86,314.1,547l0,0,.06,0,.05,0,.06,0,4.7,142-.06-.08,0-.08-.06-.08-.05-.08"/>
            <path class="cls-10" d="M319,689.18l-4.7-142,.06,0,.06,0,.06,0,.06,0,4.71,142.29-.06-.09-.06-.08-.07-.09-.06-.09"/>
            <path class="cls-11" d="M319.27,689.53l-4.71-142.29.08,0,.08,0,.07,0,.08,0,4.72,142.57-.08-.1-.08-.1-.08-.1a.39.39,0,0,0-.08-.1"/>
            <path class="cls-12" d="M319.59,689.93l-4.72-142.57.1,0,.09,0,.09,0,.1,0L320,690.37l-.1-.11-.09-.11a.52.52,0,0,1-.1-.11l-.1-.11"/>
            <path class="cls-13" d="M320,690.37l-4.73-142.89.11,0,.12,0,.12,0,.12,0,4.74,143.26-.12-.12-.12-.12-.12-.13-.12-.13"/>
            <path class="cls-14" d="M320.46,690.87l-4.74-143.26.15,0,.15,0,.16,0,.15,0,4.76,143.72-.16-.13-.15-.14a1.07,1.07,0,0,1-.16-.14l-.16-.15"/>
            <path class="cls-15" d="M321.09,691.43l-4.76-143.72.21,0h.61L321.93,692l-.21-.13-.21-.14-.21-.16-.21-.16"/>
            <path class="cls-16" d="M321.93,692l-4.78-144.25h.54l.26,0,.27,0L323,692.54l-.27-.1-.28-.12-.27-.14-.27-.16"/>
            <path class="cls-17" d="M323,692.54l-4.8-144.84c.11,0,.23,0,.34-.06l.34-.07.33-.09.32-.11,4.82,145.38H324l-.34,0-.34-.07-.34-.1"/>
            <path class="cls-18" d="M324.37,692.75l-4.82-145.38.39-.14.37-.18.36-.19.35-.22,4.82,145.66a2.37,2.37,0,0,1-.35.19l-.36.14-.38.08a2.33,2.33,0,0,1-.38,0"/>
            <path class="cls-4" d="M325.84,692.3,321,546.64l.07,0,.07-.05.07-.06.07-.05,4.82,145.68-.07,0-.07.05-.07,0-.07,0"/>
          </g>
        </g>
      </g>
      <g class="cls-2">
        <g class="cls-33">
          <g class="cls-2">
            <path class="cls-14" d="M608.57,545.67,456.23,396.8l.07-.05.07-.06.07-.05.07-.06L608.83,545.44l-.06.06-.06.06-.07.06-.07,0"/>
            <path class="cls-15" d="M608.83,545.44,456.51,396.58l.22-.19.21-.19.18-.19.16-.18,152.17,148.7a2.56,2.56,0,0,1-.11.24l-.13.23-.17.22a1.45,1.45,0,0,1-.21.22"/>
            <path class="cls-16" d="M609.45,544.53,457.28,395.83c.05-.06.09-.12.14-.17l.11-.16.1-.16c0-.06.06-.11.08-.16L609.56,543.57a2.18,2.18,0,0,1,0,.25,1.93,1.93,0,0,1,0,.24,2,2,0,0,1,0,.24c0,.07,0,.15-.07.23"/>
            <path class="cls-17" d="M609.56,543.57,457.71,395.18a.69.69,0,0,0,.05-.13s0-.09.05-.13a274953912074.13,274953912074.13,0,0,1,0-.24l151.47,148,.09.22a1.87,1.87,0,0,1,.07.22,1.74,1.74,0,0,1,0,.22l0,.21"/>
            <path class="cls-18" d="M609.32,542.7h0l-7.41-7.25-7.43-7.26L587,520.91l-7.47-7.3-7.49-7.32L564.55,499,557,491.59l-7.55-7.37-7.56-7.39-7.58-7.4L526.75,462l-7.6-7.43-7.62-7.45-7.64-7.46-7.64-7.47-7.66-7.48-7.67-7.5-7.68-7.5-7.69-7.52-7.7-7.52v-.19s0-.07,0-.1,0-.06,0-.08L608.88,541.94a2.14,2.14,0,0,1,.13.19l.12.19.1.19.09.19"/>
            <path class="cls-4" d="M608.88,541.94,457.81,394.31l0-.08,0-.06,0-.07,0-.06L608.37,541.31l.14.16.13.15c0,.06.09.11.13.16l.11.16"/>
            <path class="cls-5" d="M608.37,541.31,457.66,394l0,0,0,0,0,0,0,0,7.79,7.62,7.77,7.59h0l7.75,7.58,7.73,7.55h0l7.7,7.53,7.68,7.5h0l7.65,7.48,7.63,7.45,7.59,7.42,7.57,7.39L542,476.4l7.5,7.33,7.47,7.3,7.42,7.26h0l7.4,7.22,7.35,7.19h0l7.31,7.15,7.28,7.1h0l7.23,7.07,7.18,7h0l.07.07.07.06.06.07.07.07"/>
          </g>
        </g>
      </g>
      <polygon class="cls-21" points="455.09 397.67 456.23 396.8 608.57 545.67 607.44 546.55 455.09 397.67"/>
      <g class="cls-2">
        <g class="cls-34">
          <g class="cls-2">
            <path class="cls-4" d="M312.6,248,307,101.23a2.51,2.51,0,0,1,.29-.2,1.91,1.91,0,0,1,.27-.16,1.51,1.51,0,0,1,.26-.12,1.19,1.19,0,0,1,.23-.07l5.64,146.6-.23.16-.25.17-.27.2-.29.22"/>
            <path class="cls-5" d="M313.64,247.28,308,100.68a1,1,0,0,1,.23,0h.21l.19.06a.91.91,0,0,1,.16.11l5.62,146-.15.07-.18.11-.21.12-.23.15"/>
            <path class="cls-6" d="M314.41,246.83l-5.62-146a.69.69,0,0,1,.11.13.86.86,0,0,1,.1.16c0,.06.05.12.08.19l.06.22.26,7,.27,7,.27,7,.28,7.08.27,7.11.27,7.14L311,151l.28,7.21.28,7.23.28,7.27.28,7.29.28,7.33.28,7.34.29,7.37.28,7.4.29,7.41.28,7.44.29,7.45.29,7.48.29,7.49h-.12l-.09,0-.11.05"/>
            <path class="cls-7" d="M314.73,246.75l-5.59-145.23a.69.69,0,0,0,0,.13s0,.08,0,.13,0,.09,0,.13a.76.76,0,0,0,0,.15h0l.26,6.85.27,6.9.26,7,.27,7,.27,7.05.28,7.08.27,7.13.28,7.16.27,7.21.28,7.25.28,7.28.28,7.31.29,7.35L313,202l.29,7.41.28,7.44.29,7.47.29,7.49.29,7.52.29,7.53v0h0"/>
          </g>
        </g>
      </g>
      <polygon class="cls-21" points="305.8 102.08 306.94 101.23 312.6 248.03 311.45 248.88 305.8 102.08"/>
      <g class="cls-2">
        <g class="cls-35">
          <g class="cls-2">
            <polyline class="cls-9" points="312.68 546 593.35 546.12 593.36 546.12 593.37 546.12 593.37 546.13 593.38 546.13 312.69 546.01 312.68 546.01 312.68 546 312.68 546 312.68 546"/>
            <path class="cls-10" d="M312.69,546l280.69.12h.09l-280.74-.12h0"/>
            <path class="cls-11" d="M312.73,546.05l280.74.12h.1l-280.8-.12h0"/>
            <path class="cls-12" d="M312.77,546.09l280.8.12h.09l-280.85-.12h0"/>
            <path class="cls-13" d="M312.81,546.12l280.85.12h.1l-280.91-.12h0"/>
            <path class="cls-14" d="M312.85,546.16l280.91.12h.09l-281-.12h0"/>
            <path class="cls-15" d="M312.89,546.2H594l-281-.12h0"/>
            <path class="cls-16" d="M312.93,546.23l281,.12H594L313,546.27h0"/>
            <path class="cls-17" d="M313,546.27l281.07.12h.1L313,546.31h0"/>
            <path class="cls-18" d="M313,546.31l281.12.12h.08l0,0H313.07l0,0h0"/>
            <path class="cls-4" d="M313.09,546.36l281.21.12,0,0h0l0,0h0l-281.3-.12h0l0,0h0v0"/>
            <path class="cls-5" d="M313.16,546.42l281.3.12,0,0h0l0,0h0l-281.39-.12h0l0,0h0l0,0"/>
            <path class="cls-6" d="M313.24,546.48l281.39.12,0,0h.09l0,0-281.49-.12,0,0h0l0,0"/>
            <path class="cls-7" d="M313.31,546.54l281.49.12h0l0,0H595l-281.57-.12h0l0,0h0"/>
            <path class="cls-19" d="M313.39,546.59l281.57.12.12,0,.12,0,.12,0,.12,0-281.82-.13-.06,0-.06,0-.05,0-.06,0"/>
            <path class="cls-20" d="M313.62,546.74l281.82.13c.56.17,1.13.31,1.69.44s1.12.24,1.67.32,1.11.15,1.64.2,1.07.06,1.58.06H317.23a6.2,6.2,0,0,1-1-.07,6.14,6.14,0,0,1-.93-.19,5.92,5.92,0,0,1-.89-.32,6,6,0,0,1-.83-.45"/>
          </g>
        </g>
      </g>
      <g class="cls-2">
        <g class="cls-36">
          <g class="cls-2">
            <polyline class="cls-9" points="593.35 546.12 445.01 401.15 445.01 401.15 445.01 401.15 445.01 401.15 445.02 401.15 593.37 546.13 593.37 546.13 593.36 546.12 593.36 546.12 593.35 546.12"/>
            <polyline class="cls-23" points="593.37 546.13 445.02 401.15 445.02 401.15 445.03 401.15 445.03 401.15 445.03 401.15 593.4 546.14 593.39 546.13 593.39 546.13 593.38 546.13 593.37 546.13"/>
            <polyline class="cls-24" points="593.4 546.14 445.03 401.15 445.04 401.15 445.04 401.15 445.05 401.15 445.05 401.15 593.43 546.15 593.42 546.15 593.41 546.14 593.41 546.14 593.4 546.14"/>
            <polyline class="cls-25" points="593.43 546.15 445.05 401.15 445.05 401.15 445.06 401.15 445.06 401.15 445.06 401.15 593.45 546.16 593.45 546.16 593.44 546.15 593.43 546.15 593.43 546.15"/>
            <polyline class="cls-26" points="593.45 546.16 445.06 401.15 445.07 401.15 445.07 401.15 445.08 401.15 445.08 401.15 593.48 546.17 593.47 546.17 593.47 546.16 593.46 546.16 593.45 546.16"/>
            <polyline class="cls-27" points="593.48 546.17 445.08 401.15 445.08 401.15 445.09 401.15 445.09 401.15 445.1 401.15 593.51 546.18 593.5 546.18 593.49 546.18 593.49 546.17 593.48 546.17"/>
            <polyline class="cls-28" points="593.51 546.18 445.1 401.15 445.1 401.15 445.1 401.15 445.11 401.15 445.11 401.15 593.53 546.19 593.53 546.19 593.52 546.19 593.51 546.18 593.51 546.18"/>
            <polyline class="cls-29" points="593.53 546.19 445.11 401.15 445.12 401.15 445.12 401.15 445.12 401.15 445.13 401.15 593.56 546.2 593.55 546.2 593.55 546.2 593.54 546.2 593.53 546.19"/>
            <polyline class="cls-30" points="593.56 546.2 445.13 401.15 445.13 401.15 445.13 401.15 445.14 401.15 445.14 401.15 593.59 546.21 593.58 546.21 593.57 546.21 593.57 546.21 593.56 546.2"/>
            <polyline class="cls-31" points="593.59 546.21 445.14 401.15 445.15 401.15 445.15 401.15 445.15 401.15 445.16 401.15 593.62 546.23 593.61 546.22 593.6 546.22 593.6 546.22 593.59 546.21"/>
            <polyline class="cls-32" points="593.62 546.23 445.16 401.15 445.16 401.15 445.17 401.15 445.17 401.15 445.17 401.15 593.64 546.24 593.63 546.23 593.63 546.23 593.62 546.23 593.62 546.23"/>
            <polyline class="cls-37" points="593.64 546.24 445.17 401.15 445.18 401.15 445.18 401.15 445.19 401.15 445.19 401.15 593.67 546.25 593.66 546.24 593.65 546.24 593.65 546.24 593.64 546.24"/>
            <polyline class="cls-38" points="593.67 546.25 445.19 401.15 445.19 401.15 445.2 401.15 445.2 401.15 445.2 401.15 593.7 546.26 593.69 546.25 593.68 546.25 593.67 546.25 593.67 546.25"/>
            <polyline class="cls-39" points="593.7 546.26 445.2 401.15 445.21 401.15 445.21 401.15 445.22 401.15 445.22 401.15 593.72 546.27 593.72 546.26 593.71 546.26 593.7 546.26 593.7 546.26"/>
            <polyline class="cls-40" points="593.72 546.27 445.22 401.15 445.22 401.15 445.23 401.15 445.23 401.15 445.24 401.15 593.75 546.28 593.74 546.27 593.74 546.27 593.73 546.27 593.72 546.27"/>
            <polyline class="cls-41" points="593.75 546.28 445.24 401.15 445.24 401.15 445.24 401.15 445.25 401.15 445.25 401.15 593.78 546.29 593.77 546.29 593.76 546.28 593.76 546.28 593.75 546.28"/>
            <polyline class="cls-42" points="593.78 546.29 445.25 401.15 445.26 401.15 445.26 401.15 445.26 401.15 445.27 401.15 593.8 546.3 593.8 546.3 593.79 546.29 593.78 546.29 593.78 546.29"/>
            <polyline class="cls-43" points="593.8 546.3 445.27 401.15 445.27 401.15 445.28 401.14 445.28 401.14 445.28 401.14 593.83 546.31 593.82 546.31 593.82 546.3 593.81 546.3 593.8 546.3"/>
            <polyline class="cls-44" points="593.83 546.31 445.28 401.14 445.29 401.14 445.29 401.14 445.3 401.14 445.3 401.14 593.86 546.32 593.85 546.32 593.84 546.31 593.84 546.31 593.83 546.31"/>
            <polyline class="cls-45" points="593.86 546.32 445.3 401.14 445.3 401.14 445.31 401.14 445.31 401.14 445.31 401.14 593.88 546.33 593.88 546.33 593.87 546.33 593.86 546.32 593.86 546.32"/>
            <polyline class="cls-46" points="593.88 546.33 445.31 401.14 445.32 401.14 445.32 401.14 445.33 401.14 445.33 401.14 593.91 546.34 593.9 546.34 593.9 546.34 593.89 546.33 593.88 546.33"/>
            <polyline class="cls-47" points="593.91 546.34 445.33 401.14 445.33 401.14 445.34 401.14 445.34 401.14 445.35 401.14 593.94 546.35 593.93 546.35 593.92 546.35 593.92 546.34 593.91 546.34"/>
            <polyline class="cls-48" points="593.94 546.35 445.35 401.14 445.35 401.14 445.36 401.14 445.36 401.14 445.36 401.14 593.97 546.36 593.96 546.36 593.95 546.36 593.95 546.35 593.94 546.35"/>
            <polyline class="cls-49" points="593.97 546.36 445.36 401.14 445.37 401.14 445.37 401.14 445.38 401.14 445.38 401.14 593.99 546.37 593.99 546.37 593.98 546.37 593.97 546.36 593.97 546.36"/>
            <polyline class="cls-50" points="593.99 546.37 445.38 401.14 445.38 401.14 445.39 401.14 445.39 401.14 445.39 401.14 594.02 546.38 594.01 546.38 594.01 546.38 594 546.37 593.99 546.37"/>
            <polyline class="cls-51" points="594.02 546.38 445.39 401.14 445.4 401.14 445.4 401.14 445.41 401.14 445.41 401.14 594.05 546.39 594.04 546.39 594.03 546.39 594.03 546.38 594.02 546.38"/>
            <polyline class="cls-52" points="594.05 546.39 445.41 401.14 445.42 401.14 445.42 401.14 445.42 401.14 445.43 401.14 594.07 546.4 594.07 546.4 594.06 546.4 594.05 546.39 594.05 546.39"/>
            <polyline class="cls-53" points="594.07 546.4 445.43 401.14 445.43 401.14 445.44 401.14 445.44 401.14 445.44 401.14 594.1 546.41 594.09 546.41 594.09 546.41 594.08 546.4 594.07 546.4"/>
            <polyline class="cls-54" points="594.1 546.41 445.44 401.14 445.45 401.14 445.45 401.14 445.45 401.14 445.46 401.14 594.13 546.42 594.12 546.42 594.11 546.42 594.11 546.41 594.1 546.41"/>
            <path class="cls-55" d="M594.13,546.42,445.46,401.14h.06L594.23,546.46h-.1"/>
            <path class="cls-54" d="M594.23,546.46,445.52,401.14h.05L594.31,546.49h-.08"/>
            <path class="cls-53" d="M594.31,546.49,445.57,401.13h0L594.39,546.52h-.08"/>
            <path class="cls-52" d="M594.39,546.52,445.61,401.13h.05L594.47,546.54h-.08"/>
            <path class="cls-51" d="M594.47,546.54,445.66,401.13h0L594.54,546.57h-.07"/>
            <path class="cls-50" d="M594.54,546.57,445.71,401.12h.05L594.62,546.6h-.08"/>
            <path class="cls-49" d="M594.62,546.6,445.76,401.12h0L594.7,546.63h-.08"/>
            <path class="cls-48" d="M594.7,546.63,445.8,401.12h.05L594.78,546.65h-.08"/>
            <path class="cls-47" d="M594.78,546.65,445.85,401.11h0l149,145.57h-.08"/>
            <path class="cls-46" d="M594.86,546.68l-149-145.57H446l149,145.6h-.08"/>
            <path class="cls-45" d="M594.94,546.71,446,401.11H446L595,546.73h-.08"/>
            <path class="cls-44" d="M595,546.73,446,401.1h.05L595.1,546.76H595"/>
            <path class="cls-43" d="M595.1,546.76l-149-145.66h.05L595.18,546.78h-.08"/>
            <path class="cls-42" d="M595.18,546.78,446.1,401.09h0L595.26,546.81h-.08"/>
            <path class="cls-41" d="M595.26,546.81,446.15,401.09h.05L595.35,546.83h-.09"/>
            <path class="cls-40" d="M595.35,546.83,446.2,401.08h.05L595.43,546.86h-.08"/>
            <path class="cls-39" d="M595.43,546.86,446.25,401.08h.05L595.51,546.88h-.08"/>
            <path class="cls-38" d="M595.51,546.88,446.3,401.07h.05L595.59,546.91h-.08"/>
            <path class="cls-37" d="M595.59,546.91,446.35,401.06h0L595.67,546.93h-.08"/>
            <path class="cls-32" d="M595.67,546.93,446.4,401.06h.05L595.75,547h-.08"/>
            <path class="cls-31" d="M595.75,547,446.45,401.05h.12L596,547h-.1l-.05,0h0"/>
            <path class="cls-30" d="M596,547,446.57,401h.18L596.24,547.09l-.08,0-.07,0-.07,0-.07,0"/>
            <path class="cls-29" d="M596.24,547.09,446.75,401h.18L596.52,547.16h-.07l-.07,0-.07,0-.07,0"/>
            <path class="cls-28" d="M596.52,547.16,446.93,401h.25L596.91,547.26l-.1,0-.1,0-.1,0-.09,0"/>
            <path class="cls-27" d="M596.91,547.26,447.18,400.94h.07l.07,0h.14l149.9,146.47-.12,0-.11,0-.11,0-.11,0"/>
            <path class="cls-26" d="M597.36,547.36,447.46,400.89l.09,0,.09,0,.09,0,.09,0L597.9,547.48l-.14,0-.13,0-.14,0-.13,0"/>
            <path class="cls-25" d="M597.9,547.48,447.82,400.81l.1,0,.1,0,.1,0,.11,0L598.51,547.59l-.15,0-.15,0-.16,0-.15,0"/>
            <path class="cls-24" d="M598.51,547.59,448.23,400.72l.12,0,.12,0,.12,0,.12,0L599.23,547.7l-.17,0-.18,0-.19,0-.18,0"/>
            <path class="cls-23" d="M599.23,547.7,448.71,400.6l.15,0,.15,0,.14,0,.15,0L600.1,547.8l-.22,0-.21,0-.22,0-.22,0"/>
            <path class="cls-9" d="M600.1,547.8,449.3,400.44l.18-.06.18-.05.18-.06.18-.06,151.1,147.66h-.25l-.26,0-.26,0-.25,0"/>
            <path class="cls-10" d="M601.12,547.87,450,400.21l.22-.07.21-.08.22-.08.21-.08,151.44,148h-1.2"/>
            <path class="cls-11" d="M602.32,547.89l-151.44-148,.27-.1.25-.1.26-.11.26-.11L603.7,547.81l-.33,0-.35,0-.34,0h-.36"/>
            <path class="cls-12" d="M603.7,547.81,451.92,399.48l.3-.13.29-.14.29-.14.29-.15L605.18,547.56l-.35.07-.36.07-.38.06-.39,0"/>
            <path class="cls-13" d="M605.18,547.56,453.09,398.92l.31-.16.3-.17.3-.18.28-.18L606.59,547.07l-.32.14-.35.13-.36.11-.38.11"/>
            <path class="cls-14" d="M606.59,547.07,454.28,398.23l.22-.13.2-.14.2-.15.19-.14L607.44,546.55l-.19.14-.21.14-.22.12-.23.12"/>
          </g>
        </g>
      </g>
      <g class="cls-2">
        <g class="cls-56">
          <g class="cls-2">
            <path class="cls-9" d="M297.66,115,24.19,401.14h0L297.68,114.91v0h0v0"/>
            <path class="cls-10" d="M297.68,114.91,24.16,401.14H24L297.76,114.69l0,.06,0,0,0,.06,0,0"/>
            <path class="cls-11" d="M297.76,114.69,24,401.14h-.13L297.85,114.47l0,.06,0,0,0,.06,0,0"/>
            <path class="cls-12" d="M297.85,114.47,23.91,401.13h-.12L297.93,114.25l0,.06,0,0,0,.06,0,0"/>
            <path class="cls-13" d="M297.93,114.25,23.79,401.13h-.1L298,114.06l0,0,0,0,0,0,0,0"/>
            <path class="cls-14" d="M298,114.06,23.69,401.12H23.6L298.09,113.87l0,0,0,0,0,0,0,0"/>
            <path class="cls-15" d="M298.09,113.87,23.6,401.12h-.09L298.16,113.69l0,0,0,0v0l0,0"/>
            <path class="cls-16" d="M298.16,113.69h0l-13.35,14-13.43,14.05-13.49,14.13L244.32,170,230.7,184.28,217,198.59l-13.71,14.35-13.76,14.4-13.79,14.43L162,256.23l-13.84,14.49-13.86,14.5-13.87,14.51-13.87,14.52L92.64,328.77l-13.87,14.5-13.85,14.5L51.09,372.24,37.28,386.69,23.51,401.11h-.09L298.24,113.51l0,0,0,0,0,.05,0,0"/>
            <path class="cls-17" d="M298.24,113.51,23.42,401.1h-.1l275-287.79,0,0,0,.05,0,0,0,.06"/>
            <path class="cls-18" d="M298.33,113.3l-275,287.79h-.13L298.45,113l0,.07,0,.07,0,.07,0,.07"/>
            <path class="cls-4" d="M298.45,113,23.19,401.07h-.12l275.5-288.3,0,.07,0,.07,0,.07,0,.06"/>
            <path class="cls-5" d="M298.57,112.75,23.07,401.05h-.15L298.73,112.4l0,.09,0,.08,0,.09,0,.09"/>
            <path class="cls-6" d="M298.73,112.4,22.92,401h-.19L299,111.93l-.06.12-.05.11-.06.12,0,.12"/>
            <path class="cls-7" d="M299,111.93,22.73,401l-.06,0-.07,0-.06,0-.06,0L299.29,111.22l-.09.18-.08.17-.09.18-.08.18"/>
            <path class="cls-19" d="M299.29,111.22h0l-13.57,14.2L272.1,139.68,258.42,154,244.7,168.34l-13.76,14.4-13.8,14.44-13.83,14.48-13.86,14.5-13.88,14.53-13.9,14.55-13.92,14.57-13.93,14.57L119.88,299l-13.94,14.59L92,328.14,78.07,342.72,64.14,357.29,50.23,371.85,36.34,386.38,22.48,400.9l-.11,0-.1,0-.09-.05-.08-.05L300,109.93l-.16.32-.17.32-.17.33c-.05.1-.1.21-.16.32"/>
            <path class="cls-20" d="M300,109.93,22.1,400.71a1.16,1.16,0,0,1-.39-.41,1,1,0,0,1-.08-.52,1.64,1.64,0,0,1,.22-.6,3.72,3.72,0,0,1,.53-.68h0l14.09-14.75L50.57,369h0l14.1-14.76,14.1-14.76h0l14.1-14.76L107,310l14.11-14.76,14.11-14.77h0l14.11-14.77,14.12-14.77,14.11-14.77,14.12-14.77,14.12-14.77,14.11-14.78L234,177l14.12-14.78,14.12-14.77,14.12-14.78,14.12-14.77,14.11-14.78h0c-.37.4-.76.84-1.15,1.34s-.79,1-1.18,1.62-.79,1.19-1.18,1.83-.77,1.31-1.14,2"/>
          </g>
        </g>
      </g>
      <g class="cls-2">
        <g class="cls-57">
          <g class="cls-2">
            <path class="cls-9" d="M303.1,256.27,297.66,115v0h0v0l5.44,141.34h0"/>
            <path class="cls-23" d="M303.12,256.25l-5.44-141.34v0h0v0l5.44,141.38h0"/>
            <path class="cls-24" d="M303.15,256.22l-5.44-141.38v0h0v0l5.45,141.42h0"/>
            <path class="cls-25" d="M303.18,256.19l-5.45-141.42v-.06h0l5.45,141.46h0"/>
            <path class="cls-26" d="M303.21,256.16,297.76,114.7v-.08l5.45,141.5h0"/>
            <path class="cls-27" d="M303.24,256.12l-5.45-141.5v0h0v0l5.45,141.54h0"/>
            <path class="cls-28" d="M303.27,256.09l-5.45-141.54v0h0v0l5.46,141.58h0"/>
            <path class="cls-29" d="M303.3,256.06l-5.46-141.58v-.06h0L303.33,256h0"/>
            <path class="cls-30" d="M303.33,256l-5.46-141.62v-.08L303.36,256h0"/>
            <path class="cls-31" d="M303.36,256,297.9,114.33h0v-.06L303.39,256h0"/>
            <path class="cls-32" d="M303.39,256l-5.46-141.71v0h0v0l5.46,141.75h0"/>
            <polyline class="cls-37" points="303.42 255.94 297.96 114.19 297.96 114.18 297.97 114.17 297.97 114.16 297.97 114.15 303.44 255.92 303.43 255.93 303.43 255.93 303.42 255.94 303.42 255.94"/>
            <path class="cls-32" d="M303.44,255.92,298,114.15l0,0,0,0v0l0,0,5.46,141.85,0,0v0l0,0h0"/>
            <path class="cls-31" d="M303.5,255.85,298,114v0l0,0,0,0v0l5.47,142h0v0l0,0h0"/>
            <path class="cls-30" d="M303.57,255.79,298.1,113.84l0,0v0l0,0,0,0,5.47,142h0l0,0v0l0,0"/>
            <path class="cls-29" d="M303.64,255.72l-5.47-142v0l0,0,0,0v0l5.48,142.12,0,0h0l0,0v0"/>
            <path class="cls-28" d="M303.71,255.65l-5.48-142.12,0,0,0,0v0l0,0,5.48,142.22h0l0,0,0,0v0"/>
            <path class="cls-27" d="M303.78,255.58,298.3,113.36l0-.06,0-.06,0-.06,0-.06,5.48,142.34,0,0,0,0,0,0,0,0"/>
            <path class="cls-26" d="M303.89,255.46l-5.48-142.34,0-.06,0-.06,0-.06,0-.07L304,255.35l0,0,0,0,0,0,0,0"/>
            <path class="cls-25" d="M304,255.35l-5.49-142.48,0-.06,0-.06,0-.06,0-.06,5.5,142.61,0,0,0,0,0,0,0,0"/>
            <path class="cls-24" d="M304.12,255.24l-5.5-142.61,0-.08,0-.09,0-.08,0-.09,5.5,142.79,0,0,0,0,0,0,0,0"/>
            <path class="cls-23" d="M304.28,255.08l-5.5-142.79,0-.09,0-.09,0-.09.05-.09,5.5,143,0,0,0,.05-.05,0,0,0"/>
            <path class="cls-9" d="M304.45,254.91l-5.5-143,.05-.1.05-.11.05-.1,0-.11,5.51,143.2-.05,0-.05.05-.05.05-.06,0"/>
            <path class="cls-10" d="M304.66,254.71l-5.51-143.2.05-.11.06-.12.06-.11.05-.12,5.53,143.44-.06,0-.06.06-.06.05-.06.06"/>
            <path class="cls-11" d="M304.9,254.49l-5.53-143.44.08-.14.07-.14.07-.15.08-.14L305.2,254.2l-.08.07-.07.07-.08.07-.07.08"/>
            <path class="cls-12" d="M305.2,254.2l-5.53-143.72a1.19,1.19,0,0,1,.08-.16l.09-.17.09-.17.09-.16,5.54,144-.09.09-.09.08-.09.09-.09.08"/>
            <path class="cls-13" d="M305.56,253.86l-5.54-144a2.12,2.12,0,0,1,.11-.21l.11-.2.11-.2a2,2,0,0,0,.11-.2L306,253.44l-.12.1-.12.11-.11.11-.12.1"/>
            <path class="cls-14" d="M306,253.44,300.46,109l.15-.25.14-.25.15-.25A2,2,0,0,0,301,108l5.58,144.89-.15.13-.15.14-.15.13-.14.14"/>
            <path class="cls-15" d="M306.62,252.9,301,108c.07-.1.13-.21.2-.32l.2-.31.19-.32.2-.3,5.6,145.42-.2.18-.2.18-.2.18-.21.18"/>
            <path class="cls-16" d="M307.43,252.18l-5.6-145.42.26-.39c.09-.13.17-.26.26-.38s.17-.25.26-.37l.25-.36,5.63,146-.27.22-.26.23-.26.23-.27.23"/>
            <path class="cls-17" d="M308.49,251.27l-5.63-146,.33-.43.33-.42.32-.4.32-.37,5.64,146.53-.32.27-.33.27-.33.28-.33.28"/>
            <path class="cls-18" d="M309.8,250.17l-5.64-146.53.37-.41c.12-.13.25-.26.37-.37l.35-.34.35-.29L311.25,249l-.35.26-.35.28c-.13.09-.25.19-.37.29l-.38.3"/>
            <path class="cls-4" d="M311.25,249,305.6,102.23l0,0,.05,0,.05,0,.05,0,5.65,146.8-.05,0,0,0-.05,0-.05,0"/>
          </g>
        </g>
      </g>
      <g class="cls-2">
        <g class="cls-58">
          <g class="cls-2">
            <path class="cls-14" d="M783.21,545.75,630.56,396.59l.07-.06.07,0,.07-.06.06-.05L783.48,545.51l-.06.06-.07.06-.07.06-.07.06"/>
            <path class="cls-15" d="M783.48,545.51,630.83,396.37l.23-.2a1.8,1.8,0,0,0,.2-.19l.18-.18.16-.19,152.48,149a2.44,2.44,0,0,1-.1.24,1.76,1.76,0,0,1-.14.23l-.16.23-.2.21"/>
            <path class="cls-16" d="M784.08,544.6l-152.48-149a1.83,1.83,0,0,0,.13-.16,1.63,1.63,0,0,0,.11-.17,1.4,1.4,0,0,0,.1-.16L632,395,784.18,543.65a1.94,1.94,0,0,1,0,.24c0,.08,0,.16,0,.24s0,.16,0,.24a2,2,0,0,1-.07.23"/>
            <path class="cls-17" d="M784.18,543.65,632,395a1.12,1.12,0,0,0,.05-.13.93.93,0,0,0,0-.13l0-.13a.49.49,0,0,0,0-.12L783.93,542.77a2.14,2.14,0,0,1,.1.22c0,.08.05.15.07.22a2.25,2.25,0,0,1,0,.22.83.83,0,0,1,0,.22"/>
            <path class="cls-18" d="M783.93,542.77,632.15,394.46v-.19s0-.06,0-.09l0-.09L783.49,542a2.14,2.14,0,0,1,.13.19l.12.19a1.74,1.74,0,0,1,.1.19.82.82,0,0,1,.09.19"/>
            <path class="cls-4" d="M783.49,542,632.1,394.09l0-.07,0-.07,0-.06,0-.07L783,541.38l.14.16.14.16.12.15.12.16"/>
            <path class="cls-5" d="M783,541.38,632,393.82l0,0,0,0,0,0,0,0,7.81,7.63,7.79,7.61h0l7.76,7.59,7.74,7.56h0l7.72,7.55,7.7,7.51,7.67,7.5,7.64,7.46,7.61,7.44,7.58,7.4,7.55,7.38,7.51,7.34h0l7.48,7.31,7.45,7.28h0l7.41,7.24,7.37,7.2h0l7.33,7.16,7.29,7.13h0l7.25,7.08,7.2,7h0l.07.06.06.07.06.06.06.06"/>
          </g>
        </g>
      </g>
      <polygon class="cls-21" points="629.43 397.46 630.56 396.59 783.21 545.75 782.1 546.63 629.43 397.46"/>
      <g class="cls-2">
        <g class="cls-59">
          <g class="cls-2">
            <polyline class="cls-9" points="530.8 400.94 679.41 546.15 679.41 546.16 679.41 546.16 679.41 546.16 679.4 546.16 530.79 400.94 530.79 400.94 530.79 400.94 530.79 400.94 530.8 400.94"/>
            <polyline class="cls-10" points="530.79 400.94 679.4 546.16 679.4 546.17 679.4 546.18 679.4 546.19 679.39 546.19 530.74 400.94 530.75 400.94 530.76 400.94 530.77 400.94 530.79 400.94"/>
            <polyline class="cls-11" points="530.74 400.94 679.39 546.19 679.39 546.2 679.39 546.21 679.38 546.22 679.38 546.22 679.38 546.22 671.91 538.93 664.43 531.62 656.94 524.29 649.44 516.97 641.93 509.63 634.42 502.29 626.91 494.95 619.41 487.62 611.91 480.29 604.42 472.97 596.94 465.67 589.48 458.38 582.04 451.1 574.62 443.85 567.22 436.62 559.85 429.42 552.51 422.25 545.2 415.11 537.93 408 530.7 400.94 530.71 400.94 530.72 400.94 530.73 400.94 530.74 400.94"/>
            <polyline class="cls-12" points="530.7 400.94 679.38 546.22 679.38 546.23 679.38 546.24 679.37 546.25 679.37 546.25 679.37 546.25 671.9 538.96 664.42 531.64 656.92 524.32 649.42 516.99 641.91 509.65 634.4 502.31 626.89 494.98 619.39 487.64 611.89 480.31 604.4 472.99 596.92 465.69 589.46 458.39 582.01 451.12 574.59 443.86 567.19 436.63 559.82 429.43 552.47 422.25 545.16 415.11 537.89 408 530.66 400.94 530.67 400.94 530.68 400.94 530.69 400.94 530.7 400.94"/>
            <polyline class="cls-13" points="530.66 400.94 530.66 400.94 530.66 400.94 537.89 408 545.16 415.11 552.47 422.25 559.82 429.43 567.19 436.63 574.59 443.86 582.01 451.12 589.46 458.39 596.92 465.69 604.4 472.99 611.89 480.31 619.39 487.64 626.89 494.98 634.4 502.31 641.91 509.65 649.42 516.99 656.92 524.32 664.42 531.64 671.9 538.96 679.37 546.25 679.37 546.26 679.37 546.27 679.36 546.28 679.36 546.28 530.61 400.94 530.63 400.94 530.64 400.94 530.65 400.94 530.66 400.94"/>
            <polyline class="cls-14" points="530.61 400.94 679.36 546.28 679.36 546.29 679.36 546.3 679.35 546.31 679.35 546.32 530.57 400.93 530.58 400.93 530.59 400.94 530.6 400.94 530.61 400.94"/>
            <polyline class="cls-15" points="530.57 400.93 679.35 546.32 679.35 546.32 679.35 546.33 679.34 546.34 679.34 546.34 530.53 400.93 530.54 400.93 530.55 400.93 530.56 400.93 530.57 400.93"/>
            <polyline class="cls-16" points="530.53 400.93 530.53 400.93 530.53 400.93 537.77 408.01 545.06 415.13 552.37 422.28 559.72 429.46 567.1 436.67 574.51 443.9 581.93 451.16 589.38 458.44 596.85 465.74 604.33 473.05 611.83 480.37 619.33 487.71 626.84 495.04 634.35 502.38 641.87 509.73 649.38 517.07 656.88 524.4 664.38 531.73 671.87 539.04 679.34 546.34 679.34 546.35 679.34 546.36 679.33 546.37 679.33 546.37 530.49 400.93 530.5 400.93 530.51 400.93 530.52 400.93 530.53 400.93"/>
            <polyline class="cls-17" points="530.49 400.93 679.33 546.37 679.33 546.38 679.33 546.39 679.32 546.39 679.32 546.4 530.45 400.93 530.46 400.93 530.47 400.93 530.48 400.93 530.49 400.93"/>
            <polyline class="cls-18" points="530.45 400.93 679.32 546.4 679.32 546.41 679.32 546.42 679.31 546.42 679.31 546.43 530.41 400.93 530.42 400.93 530.43 400.93 530.44 400.93 530.45 400.93"/>
            <polyline class="cls-4" points="530.41 400.93 537.66 408.02 544.95 415.14 552.28 422.3 559.63 429.49 567.02 436.7 574.43 443.94 581.86 451.21 589.32 458.49 596.79 465.79 604.27 473.11 611.77 480.43 619.28 487.77 626.79 495.11 634.3 502.45 641.82 509.8 649.34 517.14 656.84 524.48 664.35 531.81 671.84 539.13 679.31 546.43 679.31 546.44 679.31 546.45 679.3 546.45 679.3 546.46 530.37 400.93 530.38 400.93 530.39 400.93 530.4 400.93 530.41 400.93"/>
            <path class="cls-5" d="M530.37,400.93h0l7.25,7.09,7.3,7.12,7.33,7.16,7.35,7.19,7.39,7.22L574.4,444l7.44,7.26,7.45,7.29,7.48,7.3,7.48,7.31,7.5,7.33,7.51,7.34,7.51,7.34,7.52,7.34,7.52,7.35,7.51,7.34,7.51,7.34,7.5,7.33,7.49,7.32,7.48,7.31h0v0h0v0l-149-145.6h.08"/>
            <path class="cls-6" d="M530.29,400.92l149,145.6v0h0v0L530.19,400.91h.1"/>
            <path class="cls-7" d="M530.19,400.91,679.27,546.59h0v0h0L530.1,400.91h.09"/>
            <path class="cls-19" d="M530.1,400.91,679.25,546.65v0h0v0h0l-7.49-7.32-7.5-7.33-7.51-7.34-7.52-7.35L641.68,510l-7.52-7.36-7.53-7.35L619.11,488l-7.52-7.35-7.51-7.34-7.5-7.32-7.48-7.32-7.47-7.3-7.45-7.28-7.43-7.26-7.41-7.24L552,422.35l-7.35-7.18L537.29,408,530,400.9h.1"/>
            <path class="cls-20" d="M530,400.9,679.23,546.72a2.57,2.57,0,0,0-.06.35,1.5,1.5,0,0,0,0,.3.86.86,0,0,0,.06.23.52.52,0,0,0,.12.17h0l-7.56-7.39L664.22,533l-7.57-7.4-7.57-7.4-7.58-7.4-7.58-7.41-7.58-7.4-7.57-7.4-7.58-7.41-7.56-7.39-7.57-7.39L588.51,459,581,451.63l-7.54-7.37-7.53-7.35-7.51-7.35-7.51-7.33-7.48-7.32-7.47-7.3-7.46-7.28a1.37,1.37,0,0,0,.26.2l.35.16a2.43,2.43,0,0,0,.43.12,3.44,3.44,0,0,0,.5.09"/>
          </g>
        </g>
      </g>
      <g class="cls-2">
        <g class="cls-60">
          <g class="cls-2">
            <path class="cls-5" d="M598.68,248.05,312.6,248l.2-.16.2-.14.19-.14.17-.12,286,0-.13.12-.16.14-.17.14-.2.15"/>
            <path class="cls-6" d="M599.34,247.5l-286,0,.31-.21.26-.17.23-.13.2-.11,285.34,0a.16.16,0,0,1,0,.1.3.3,0,0,1-.05.14,1.36,1.36,0,0,1-.12.17l-.2.21"/>
            <path class="cls-7" d="M599.7,246.88l-285.34,0,.1,0,.09,0,.07,0H599.48l.1,0,.07,0s0,0,.05,0"/>
          </g>
        </g>
      </g>
      <g class="cls-2">
        <g class="cls-61">
          <g class="cls-2">
            <path class="cls-20" d="M456.23,396.8,598.68,248.05l.23-.18a1.93,1.93,0,0,0,.21-.17l.17-.15.15-.14-7.11,7.42-7.11,7.42-7.11,7.42L571,277.09l-7.11,7.43L556.78,292l-7.12,7.43-7.11,7.43-7.12,7.43-7.12,7.43-7.12,7.44-7.12,7.43L507,344l-7.12,7.44-7.13,7.43-7.12,7.44-7.13,7.44-7.12,7.44h0l-7.13,7.44-7.12,7.44h0l-.19.19-.2.18-.22.19-.24.19"/>
          </g>
        </g>
      </g>
      <polygon class="cls-21" points="311.45 248.88 312.6 248.03 598.68 248.06 597.55 248.91 311.45 248.88"/>
      <polygon class="cls-21" points="597.55 248.91 598.68 248.06 456.23 396.8 455.09 397.67 597.55 248.91"/>
      <g class="cls-2">
        <g class="cls-62">
          <g class="cls-2">
            <polyline class="cls-9" points="679.41 546.15 768.05 546.19 768.06 546.2 768.06 546.2 768.07 546.2 768.07 546.2 679.4 546.16 679.4 546.16 679.41 546.16 679.41 546.16 679.41 546.15"/>
            <path class="cls-10" d="M679.4,546.16l88.67,0h.1l-88.78,0h0"/>
            <path class="cls-11" d="M679.39,546.2l88.78,0h.09l-88.88,0h0"/>
            <path class="cls-12" d="M679.38,546.24l88.88,0h.1l-89,0h0"/>
            <path class="cls-13" d="M679.36,546.28l89,0h.1l-89.11,0h0"/>
            <path class="cls-14" d="M679.35,546.32l89.11,0H679.35"/>
            <path class="cls-15" d="M679.34,546.35h89.31l-89.33,0h0"/>
            <path class="cls-16" d="M679.32,546.39l89.33,0h.09l-89.43,0h0"/>
            <path class="cls-17" d="M679.31,546.43l89.43,0h.1l-89.54,0h0"/>
            <path class="cls-18" d="M679.3,546.46l89.54,0,0,0H769l0,0H679.29v0h0v0"/>
            <path class="cls-4" d="M679.28,546.52H769l0,0h0l0,0-89.89,0v0h0v0h0"/>
            <path class="cls-5" d="M679.27,546.58l89.89,0h0l0,0h0l0,0-90.08,0v0h0v0h0"/>
            <path class="cls-6" d="M679.25,546.64l90.08,0h.08l0,0h0l-90.26,0h0v0h0"/>
            <path class="cls-7" d="M679.24,546.69l90.26,0,0,0h.08l0,0-90.44,0h0v0h0v0"/>
            <path class="cls-19" d="M679.22,546.75l90.44,0,.12,0,.12,0,.12,0,.12,0-90.95,0v-.15"/>
            <path class="cls-20" d="M679.19,546.9l90.95,0c.56.17,1.12.32,1.69.45s1.12.23,1.67.32,1.1.15,1.64.19,1.06.07,1.56.07H679.79a.71.71,0,0,1-.31-.07.48.48,0,0,1-.21-.19.64.64,0,0,1-.1-.32,1.77,1.77,0,0,1,0-.45"/>
          </g>
        </g>
      </g>
      <g class="cls-2">
        <g class="cls-63">
          <g class="cls-2">
            <polyline class="cls-9" points="768.05 546.19 619.39 400.94 619.4 400.94 619.4 400.94 619.4 400.94 619.4 400.94 768.07 546.2 768.07 546.2 768.06 546.2 768.06 546.2 768.05 546.19"/>
            <polyline class="cls-23" points="768.07 546.2 619.4 400.94 619.41 400.94 619.41 400.94 619.42 400.94 619.42 400.94 768.1 546.21 768.09 546.21 768.09 546.21 768.08 546.2 768.07 546.2"/>
            <polyline class="cls-24" points="768.1 546.21 619.42 400.94 619.42 400.94 619.43 400.94 619.43 400.94 619.44 400.94 768.13 546.22 768.12 546.22 768.11 546.22 768.11 546.22 768.1 546.21"/>
            <polyline class="cls-25" points="768.13 546.22 619.44 400.94 619.44 400.94 619.44 400.94 619.45 400.94 619.45 400.94 768.15 546.23 768.15 546.23 768.14 546.23 768.13 546.23 768.13 546.22"/>
            <polyline class="cls-26" points="768.15 546.23 619.45 400.94 619.46 400.94 619.46 400.94 619.46 400.94 619.47 400.94 768.18 546.25 768.17 546.24 768.17 546.24 768.16 546.24 768.15 546.23"/>
            <polyline class="cls-27" points="768.18 546.25 619.47 400.94 619.47 400.94 619.47 400.94 619.48 400.94 619.48 400.94 768.21 546.26 768.2 546.25 768.19 546.25 768.19 546.25 768.18 546.25"/>
            <polyline class="cls-28" points="768.21 546.26 619.48 400.94 619.49 400.94 619.49 400.94 619.49 400.94 619.5 400.94 768.23 546.27 768.23 546.26 768.22 546.26 768.21 546.26 768.21 546.26"/>
            <polyline class="cls-29" points="768.23 546.27 619.5 400.94 619.5 400.94 619.51 400.94 619.51 400.94 619.51 400.94 768.26 546.28 768.25 546.27 768.25 546.27 768.24 546.27 768.23 546.27"/>
            <polyline class="cls-30" points="768.26 546.28 619.51 400.94 619.52 400.94 619.52 400.94 619.52 400.94 619.53 400.94 768.29 546.29 768.28 546.29 768.27 546.28 768.27 546.28 768.26 546.28"/>
            <polyline class="cls-31" points="768.29 546.29 619.53 400.94 619.53 400.94 619.54 400.94 619.54 400.94 619.54 400.94 768.31 546.3 768.31 546.3 768.3 546.29 768.29 546.29 768.29 546.29"/>
            <polyline class="cls-32" points="768.31 546.3 619.54 400.94 619.55 400.94 619.55 400.94 619.56 400.94 619.56 400.94 768.34 546.31 768.33 546.31 768.33 546.3 768.32 546.3 768.31 546.3"/>
            <polyline class="cls-37" points="768.34 546.31 619.56 400.94 619.56 400.94 619.57 400.94 619.57 400.94 619.58 400.94 768.37 546.32 768.36 546.32 768.35 546.32 768.35 546.31 768.34 546.31"/>
            <polyline class="cls-38" points="768.37 546.32 619.58 400.94 619.58 400.94 619.58 400.94 619.59 400.94 619.59 400.94 768.39 546.33 768.39 546.33 768.38 546.33 768.37 546.32 768.37 546.32"/>
            <polyline class="cls-39" points="768.39 546.33 619.59 400.94 619.6 400.94 619.6 400.94 619.6 400.94 619.61 400.94 768.42 546.34 768.41 546.34 768.41 546.34 768.4 546.33 768.39 546.33"/>
            <polyline class="cls-40" points="768.42 546.34 619.61 400.94 619.61 400.94 619.62 400.94 619.62 400.94 619.62 400.94 768.45 546.35 768.44 546.35 768.43 546.35 768.43 546.34 768.42 546.34"/>
            <polyline class="cls-41" points="768.45 546.35 619.62 400.94 619.63 400.94 619.63 400.94 619.63 400.94 619.64 400.94 768.48 546.36 768.47 546.36 768.46 546.36 768.46 546.36 768.45 546.35"/>
            <polyline class="cls-42" points="768.48 546.36 619.64 400.94 619.64 400.93 619.65 400.93 619.65 400.93 619.65 400.93 768.5 546.37 768.5 546.37 768.49 546.37 768.48 546.37 768.48 546.36"/>
            <polyline class="cls-43" points="768.5 546.37 619.65 400.93 619.66 400.93 619.66 400.93 619.67 400.93 619.67 400.93 768.53 546.38 768.52 546.38 768.51 546.38 768.51 546.38 768.5 546.37"/>
            <polyline class="cls-44" points="768.53 546.38 619.67 400.93 619.67 400.93 619.68 400.93 619.68 400.93 619.69 400.93 768.56 546.39 768.55 546.39 768.54 546.39 768.53 546.39 768.53 546.38"/>
            <polyline class="cls-45" points="768.56 546.39 619.69 400.93 619.69 400.93 619.7 400.93 619.7 400.93 619.7 400.93 768.58 546.4 768.58 546.4 768.57 546.4 768.56 546.4 768.56 546.39"/>
            <polyline class="cls-46" points="768.58 546.4 619.7 400.93 619.71 400.93 619.71 400.93 619.71 400.93 619.72 400.93 768.61 546.41 768.6 546.41 768.6 546.41 768.59 546.41 768.58 546.4"/>
            <polyline class="cls-47" points="768.61 546.41 619.72 400.93 619.72 400.93 619.73 400.93 619.73 400.93 619.73 400.93 768.64 546.42 768.63 546.42 768.62 546.42 768.62 546.42 768.61 546.41"/>
            <polyline class="cls-48" points="768.64 546.42 619.73 400.93 619.74 400.93 619.74 400.93 619.75 400.93 619.75 400.93 768.66 546.43 768.66 546.43 768.65 546.43 768.64 546.43 768.64 546.42"/>
            <polyline class="cls-49" points="768.66 546.43 619.75 400.93 619.75 400.93 619.76 400.93 619.76 400.93 619.77 400.93 768.69 546.45 768.68 546.44 768.68 546.44 768.67 546.44 768.66 546.43"/>
            <polyline class="cls-50" points="768.69 546.45 619.77 400.93 619.77 400.93 619.77 400.93 619.78 400.93 619.78 400.93 768.72 546.46 768.71 546.45 768.7 546.45 768.7 546.45 768.69 546.45"/>
            <polyline class="cls-51" points="768.72 546.46 619.78 400.93 619.79 400.93 619.79 400.93 619.79 400.93 619.8 400.93 768.75 546.47 768.74 546.46 768.73 546.46 768.73 546.46 768.72 546.46"/>
            <polyline class="cls-52" points="768.75 546.47 619.8 400.93 619.8 400.93 619.81 400.93 619.81 400.93 619.81 400.93 768.77 546.48 768.76 546.47 768.76 546.47 768.75 546.47 768.75 546.47"/>
            <polyline class="cls-53" points="768.77 546.48 619.81 400.93 619.82 400.93 619.82 400.93 619.83 400.93 619.83 400.93 768.8 546.49 768.79 546.48 768.79 546.48 768.78 546.48 768.77 546.48"/>
            <polyline class="cls-54" points="768.8 546.49 619.83 400.93 619.83 400.93 619.84 400.93 619.84 400.93 619.85 400.93 768.83 546.5 768.82 546.49 768.81 546.49 768.81 546.49 768.8 546.49"/>
            <path class="cls-55" d="M768.83,546.5l-149-145.57h.06l149,145.61h-.1"/>
            <path class="cls-54" d="M768.93,546.53l-149-145.61h0L769,546.56h-.08"/>
            <path class="cls-53" d="M769,546.56,620,400.92h0L769.09,546.59H769"/>
            <path class="cls-52" d="M769.09,546.59,620,400.92h0l149.12,145.7h-.08"/>
            <path class="cls-51" d="M769.17,546.62,620.05,400.92h.05L769.24,546.65h-.07"/>
            <path class="cls-50" d="M769.24,546.65,620.1,400.91h0L769.32,546.67h-.08"/>
            <path class="cls-49" d="M769.32,546.67,620.14,400.91h.05L769.4,546.7h-.08"/>
            <path class="cls-48" d="M769.4,546.7,620.19,400.91h0L769.48,546.73h-.08"/>
            <path class="cls-47" d="M769.48,546.73,620.24,400.9h0L769.56,546.75h-.08"/>
            <path class="cls-46" d="M769.56,546.75,620.29,400.9h0L769.64,546.78h-.08"/>
            <path class="cls-45" d="M769.64,546.78,620.33,400.89h0L769.72,546.81h-.08"/>
            <path class="cls-44" d="M769.72,546.81,620.38,400.89h0l149.37,146h-.08"/>
            <path class="cls-43" d="M769.8,546.83l-149.37-146h.05l149.4,146h-.08"/>
            <path class="cls-42" d="M769.88,546.86l-149.4-146h0L770,546.88h-.08"/>
            <path class="cls-41" d="M770,546.88l-149.43-146h.05l149.47,146H770"/>
            <path class="cls-40" d="M770.05,546.91l-149.47-146h0l149.5,146.07h-.08"/>
            <path class="cls-39" d="M770.13,546.93,620.63,400.86h0L770.21,547h-.08"/>
            <path class="cls-38" d="M770.21,547,620.68,400.86h.05L770.29,547h-.08"/>
            <path class="cls-37" d="M770.29,547,620.73,400.85h0L770.37,547h-.08"/>
            <path class="cls-32" d="M770.37,547,620.78,400.85h.05L770.45,547h-.08"/>
            <path class="cls-31" d="M770.45,547,620.83,400.84H621L770.65,547.09h0l-.05,0h0l0,0"/>
            <path class="cls-30" d="M770.65,547.09,621,400.82h.18L770.93,547.17l-.07,0-.07,0-.07,0-.07,0"/>
            <path class="cls-29" d="M770.93,547.17,621.14,400.8h.17l149.9,146.47-.07,0-.07,0-.07,0h-.07"/>
            <path class="cls-28" d="M771.21,547.24,621.31,400.77h.25L771.61,547.34l-.1,0-.1,0-.1,0-.1,0"/>
            <path class="cls-27" d="M771.61,547.34,621.56,400.73h.07l.08,0h.07l.07,0,150.2,146.77-.11,0-.11,0-.11,0-.11,0"/>
            <path class="cls-26" d="M772.05,547.44,621.85,400.67h.09l.09,0,.09,0,.09,0L772.6,547.55l-.14,0-.13,0-.14,0-.14,0"/>
            <path class="cls-25" d="M772.6,547.55,622.21,400.6l.1,0,.1,0,.1,0,.1,0,150.6,147.15-.15,0-.16,0-.15,0-.15,0"/>
            <path class="cls-24" d="M773.21,547.66,622.61,400.51l.12,0,.12,0,.12,0,.12,0L773.93,547.77l-.18,0-.18,0-.18,0-.18,0"/>
            <path class="cls-23" d="M773.93,547.77,623.09,400.39l.15,0,.15,0,.14,0,.15,0L774.79,547.87l-.21,0-.22,0-.21,0-.22,0"/>
            <path class="cls-9" d="M774.79,547.87,623.68,400.22l.18-.05.18-.06.18-.05.18-.06L775.81,548l-.25,0h-.26l-.25,0-.26,0"/>
            <path class="cls-10" d="M775.81,548,624.4,400l.21-.08.22-.07.21-.08.22-.08L777,548h-1.2"/>
            <path class="cls-11" d="M777,548,625.26,399.69l.26-.1.26-.1.25-.11.26-.11L778.38,547.88l-.33,0-.34,0-.35,0H777"/>
            <path class="cls-12" d="M778.38,547.88,626.29,399.27l.29-.14.3-.13.28-.15.29-.14L779.86,547.63l-.35.08-.37.07-.37.06-.39,0"/>
            <path class="cls-13" d="M779.86,547.63,627.45,398.71l.31-.17.3-.17.29-.17.29-.18L781.26,547.14l-.32.15-.35.12-.36.12-.37.1"/>
            <path class="cls-14" d="M781.26,547.14,628.64,398l.21-.14.2-.14.19-.14.19-.14L782.1,546.63l-.19.14-.21.13-.21.13-.23.11"/>
          </g>
        </g>
      </g>
      <path class="cls-21" d="M297.66,115l1.2,31.3,1.33,34.33,1.42,36.84,1.49,38.83H583.72l-32,33.37-34,35.5-35.7,37.29L445,401.15l39.64,38.74,38.19,37.32,36.36,35.53,34.15,33.38-66.19,0-69.19,0-71.67,0-73.62,0L314,584.57l1.22,36.57,1.12,34,1,31-71.71-69.72L172.24,545.1,98.13,473l-73.94-71.9L93.11,329l69.11-72.33L230.69,185Z"/>
      <g class="cls-2">
        <g class="cls-64">
          <g class="cls-2">
            <path class="cls-9" d="M583.72,256.3l-280.62,0h0l280.66,0h-.08"/>
            <path class="cls-23" d="M583.8,256.27l-280.66,0h0v0l280.74,0h-.09l0,0"/>
            <path class="cls-24" d="M583.92,256.22l-280.74,0h0v0l280.8,0h0l0,0h0"/>
            <path class="cls-25" d="M584,256.17l-280.8,0h0v0l280.87,0h-.06l0,0h0"/>
            <path class="cls-26" d="M584.15,256.12l-280.87,0h0l0,0,280.93,0h0l0,0h0"/>
            <path class="cls-27" d="M584.26,256.07l-280.93,0h0v0l281,0h-.06l0,0h0"/>
            <path class="cls-28" d="M584.38,256l-281,0h0v0l281.08,0h-.06l0,0h0"/>
            <polyline class="cls-29" points="584.5 255.97 303.42 255.93 303.42 255.93 303.42 255.93 303.42 255.93 303.42 255.93 584.5 255.97 584.5 255.97 584.5 255.97 584.5 255.97 584.5 255.97"/>
            <path class="cls-28" d="M584.5,256l-281.08,0,0,0,0,0,0,0,0,0,281.2,0-.05,0-.06,0-.06,0,0,0"/>
            <path class="cls-27" d="M584.72,255.87l-281.2,0,0,0,0,0,0,0,0,0,281.33,0-.06,0,0,0-.06,0-.06,0"/>
            <path class="cls-26" d="M585,255.77l-281.33,0,0,0,0,0,0,0,0,0,281.46,0-.06,0,0,0-.06,0-.06,0"/>
            <path class="cls-25" d="M585.18,255.67l-281.46,0,0,0,0,0,0,0,0,0,281.6,0-.06,0-.07,0-.06,0-.07,0"/>
            <path class="cls-24" d="M585.44,255.55l-281.6,0,0,0,0,0,0,0,0,0,281.76,0-.07,0-.08,0-.07,0-.08,0"/>
            <path class="cls-23" d="M585.74,255.41l-281.76,0,0,0,0,0,0,0,0,0,281.93,0-.08,0-.07,0-.08,0-.07,0"/>
            <path class="cls-9" d="M586,255.28l-281.93,0,0,0,.05,0,0,0,0,0,282.11,0-.09,0-.09,0-.09,0-.08,0"/>
            <path class="cls-10" d="M586.39,255.11l-282.11,0,0,0,.05,0,0,0,0,0,282.3,0-.09.05-.09,0-.1,0-.09,0"/>
            <path class="cls-11" d="M586.76,254.94l-282.3,0,.05,0,.06-.06.05-.05.05-.05,282.53,0-.11.06-.11.05-.11,0-.11.05"/>
            <path class="cls-12" d="M587.2,254.73l-282.53,0,.06-.06.06,0,.06-.06.06-.06,282.77,0-.12.05-.12.06-.12.06-.12,0"/>
            <path class="cls-13" d="M587.68,254.51l-282.77,0,.08-.07.08-.08.08-.07.08-.08,283.07,0-.16.07-.15.08-.16.07-.15.08"/>
            <path class="cls-14" d="M588.3,254.21l-283.07,0,.1-.09.1-.09.1-.09.1-.09,283.41,0-.18.09-.19.09-.19.09-.18.1"/>
            <path class="cls-15" d="M589,253.84l-283.41,0,.12-.12.13-.12.13-.12.13-.11,283.83,0-.23.12-.23.11-.24.12-.23.12"/>
            <path class="cls-16" d="M590,253.37l-283.83,0,.17-.16.18-.16.17-.16.18-.16,284.35,0-.3.15-.3.16-.31.16-.31.16"/>
            <path class="cls-17" d="M591.19,252.74l-284.35,0,.24-.21.24-.21.24-.21.24-.21,285,0-.38.21-.39.21-.4.21-.4.22"/>
            <path class="cls-18" d="M592.76,251.89l-285,0,.33-.28.32-.28.33-.28.32-.26,285.59,0-.46.27-.47.27-.49.28-.51.28"/>
            <path class="cls-4" d="M594.69,250.79l-285.59,0,.4-.34.4-.33.39-.31.38-.3,286.05,0-.45.3-.5.31-.52.33-.56.34"/>
            <path class="cls-5" d="M596.72,249.51l-286,0,.2-.16.2-.15.19-.14.19-.15,286.1,0-.19.15-.2.14-.21.15-.23.16"/>
          </g>
        </g>
      </g>
      <g class="cls-2">
        <g class="cls-65">
          <g class="cls-2">
            <path class="cls-9" d="M445,401.15,583.72,256.3h.07L445.05,401.15h0"/>
            <path class="cls-10" d="M445.05,401.15,583.79,256.27l.08,0,.09,0,.08,0,.08,0-138.87,145h-.2"/>
            <path class="cls-11" d="M445.25,401.15l138.87-145,.08,0,.08,0,.09,0,.08,0-139,145.15h-.2"/>
            <path class="cls-12" d="M445.45,401.14,584.45,256l0,0,.06,0,.05,0,0,0L445.58,401.13h-.13"/>
            <path class="cls-13" d="M445.58,401.13,584.66,255.9l.05,0,0,0,0,0,.05,0L445.7,401.12h-.12"/>
            <path class="cls-14" d="M445.7,401.12,584.86,255.81l0,0,.05,0,0,0,0,0L445.82,401.12h-.12"/>
            <path class="cls-15" d="M445.82,401.12l139.24-145.4.05,0,0,0,.05,0,0,0L445.94,401.11h-.12"/>
            <path class="cls-16" d="M445.94,401.11,585.26,255.63l.06,0,.06,0,.07,0,.06,0L446.1,401.09h-.16"/>
            <path class="cls-17" d="M446.1,401.09,585.51,255.52l.07,0,.07,0,.06,0,.07,0L446.27,401.07h-.17"/>
            <path class="cls-18" d="M446.27,401.07,585.78,255.4l.07,0,.07,0,.06,0,.07,0L446.44,401.05h-.17"/>
            <path class="cls-4" d="M446.44,401.05,586.05,255.27l.1,0,.1,0,.11-.05.1,0L446.7,401h-.26"/>
            <path class="cls-5" d="M446.7,401,586.46,255.08l.11-.05.1-.05.11,0,.11-.05L447,401h-.15l-.07,0h-.07"/>
            <path class="cls-6" d="M447,401l139.9-146.09.17-.08.18-.08.17-.09.18-.08L447.44,400.89l-.11,0-.12,0-.11,0-.11,0"/>
            <path class="cls-7" d="M447.44,400.89,587.59,254.55l.26-.13.27-.13.26-.13.27-.13L448.15,400.74l-.17,0-.18,0-.18,0-.18,0"/>
            <path class="cls-19" d="M448.15,400.74,588.65,254l.54-.26.53-.27.53-.27.52-.27L449.63,400.33l-.37.12-.37.1-.37.1-.37.09"/>
            <path class="cls-20" d="M449.63,400.33,590.77,253c.72-.38,1.41-.75,2.07-1.12s1.29-.72,1.88-1.07,1.11-.68,1.59-1,.9-.6,1.24-.87L455.09,397.67a11.71,11.71,0,0,1-1.16.78c-.41.25-.86.49-1.33.72s-1,.43-1.45.63-1,.38-1.52.53"/>
          </g>
        </g>
      </g>
      <g class="cls-2">
        <g class="cls-66">
          <g class="cls-2">
            <path class="cls-20" d="M630.56,396.59,773.21,247.77l.22-.18.2-.16.16-.15a1.84,1.84,0,0,0,.14-.14l-7.11,7.43L759.7,262l-7.12,7.43-7.13,7.43-7.12,7.43-7.12,7.43-7.13,7.44L717,306.58,709.83,314l-7.13,7.44-7.13,7.43-7.13,7.44-7.13,7.44-7.13,7.44L667,358.66l-7.13,7.44-7.14,7.44L645.64,381h0l-7.14,7.45-7.13,7.44-.18.18-.19.17-.21.19-.23.18"/>
          </g>
        </g>
      </g>
      <g class="cls-2">
        <g class="cls-67">
          <g class="cls-2">
            <path class="cls-5" d="M773.21,247.77l-99.75,0,.2-.15.21-.15.21-.13.21-.12,99.57,0-.13.12-.15.13a1.24,1.24,0,0,1-.18.14l-.19.16"/>
            <path class="cls-6" d="M773.86,247.22l-99.57,0,.39-.21.4-.17.39-.14.39-.1,98.34,0a.14.14,0,0,1,0,.11.34.34,0,0,1-.05.14,1.36,1.36,0,0,1-.12.17l-.19.21"/>
            <path class="cls-7" d="M774.2,246.59l-98.34,0,.25,0,.24,0,.24,0H774l.1,0,.08,0,0,0"/>
          </g>
        </g>
      </g>
      <polygon class="cls-21" points="672.34 248.67 673.46 247.81 773.21 247.77 772.1 248.63 672.34 248.67"/>
      <polygon class="cls-21" points="772.1 248.63 773.21 247.77 630.56 396.59 629.43 397.46 772.1 248.63"/>
      <g class="cls-2">
        <g class="cls-68">
          <g class="cls-2">
            <polyline class="cls-9" points="669.6 256.06 530.8 400.94 530.79 400.94 530.78 400.94 530.77 400.94 530.77 400.94 669.59 256.04 669.59 256.05 669.59 256.05 669.6 256.06 669.6 256.06"/>
            <path class="cls-10" d="M669.59,256,530.77,400.94h-.13L669.55,256V256"/>
            <path class="cls-11" d="M669.55,256l-138.91,145h-.12l139-145.08v.1"/>
            <path class="cls-12" d="M669.51,255.85l-139,145.08h-.12L669.48,255.76v.09"/>
            <path class="cls-13" d="M669.48,255.76,530.4,400.93h-.11L669.45,255.67v.09"/>
            <path class="cls-14" d="M669.45,255.67,530.29,400.92h-.09L669.43,255.59v.08"/>
            <path class="cls-15" d="M669.43,255.59,530.2,400.92h-.09l139.3-145.4v.08"/>
            <path class="cls-16" d="M669.41,255.51h0l-7,7.31-7,7.31-7,7.32-7,7.33-7,7.34-7,7.34-7,7.33-7,7.34-7,7.32-7,7.32-7,7.31-7,7.29-7,7.28-7,7.25-6.93,7.24-6.91,7.21-6.89,7.19-6.85,7.15-6.83,7.13-6.79,7.09H530L669.39,255.43v.08"/>
            <path class="cls-17" d="M669.39,255.43,530,400.9h-.1L669.36,255.34v.09"/>
            <path class="cls-18" d="M669.36,255.34,529.92,400.89h-.13L669.34,255.21v.13"/>
            <path class="cls-4" d="M669.34,255.21,529.79,400.87h-.12L669.32,255.09v.12"/>
            <path class="cls-5" d="M669.32,255.09,529.67,400.85h-.15L669.3,254.92v.17"/>
            <path class="cls-6" d="M669.3,254.92,529.52,400.82h-.14l0,0L669.28,254.7v.22"/>
            <path class="cls-7" d="M669.28,254.7,529.33,400.77l-.07,0-.06,0-.07,0-.06,0,140.2-146.33v.26a.25.25,0,0,0,0,.08"/>
            <path class="cls-19" d="M669.27,254.36,529.07,400.69l-.11,0-.1,0-.09-.05-.09-.05L669.31,253.71c0,.06,0,.11,0,.16s0,.11,0,.17,0,.1,0,.16v.16"/>
            <path class="cls-20" d="M669.31,253.71h0l-7,7.36-7.06,7.37-7.06,7.37-7.07,7.38L634,290.57,626.93,298l-7.07,7.38-7.07,7.38-7.07,7.37-7.05,7.37-7.06,7.36-7,7.35-7,7.35-7,7.33-7,7.32-7,7.3-7,7.29-7,7.27-6.94,7.25-6.93,7.23a1.17,1.17,0,0,1-.41-.42,1,1,0,0,1-.09-.54,1.54,1.54,0,0,1,.22-.63,3.33,3.33,0,0,1,.55-.71h0l7.12-7.43,7.11-7.43,7.12-7.43,7.12-7.43,7.12-7.43,7.12-7.43,7.12-7.43,7.12-7.44,7.12-7.43,7.13-7.44,7.12-7.43L614.4,309l7.13-7.44,7.12-7.44,7.13-7.44,7.13-7.44,7.13-7.44,7.12-7.44,7.13-7.44,7.13-7.44h0a8.24,8.24,0,0,0-.8,1,9.32,9.32,0,0,0-.62,1,8,8,0,0,0-.45,1.1,7.49,7.49,0,0,0-.24,1.1"/>
          </g>
        </g>
      </g>
      <path class="cls-21" d="M758.29,256l-32,33.37-34,35.53-35.75,37.3-37.11,38.71,39.72,38.81,38.27,37.39,36.44,35.61,34.23,33.44H679.41L642,509.57l-37.5-36.64-37.18-36.34L530.8,400.94l34.06-35.56,34.72-36.24,35-36.57,35-36.51h88.69Z"/>
      <g class="cls-2">
        <g class="cls-69">
          <g class="cls-2">
            <path class="cls-9" d="M619.39,400.94,758.29,256h.08l-138.93,145h-.05"/>
            <path class="cls-10" d="M619.44,400.94,758.37,256l.08,0,.08,0,.08,0,.09,0L619.63,400.93h-.19"/>
            <path class="cls-11" d="M619.63,400.93,758.7,255.85l.08,0,.08,0,.08,0,.08,0L619.83,400.93h-.2"/>
            <path class="cls-12" d="M619.83,400.93,759,255.71l.06,0,0,0,.06,0,0,0L620,400.92h-.13"/>
            <path class="cls-13" d="M620,400.92l139.28-145.3,0,0,.05,0,0,0,.05,0L620.09,400.91H620"/>
            <path class="cls-14" d="M620.09,400.91,759.44,255.53l0,0,0,0,.05,0,0,0L620.21,400.9h-.12"/>
            <path class="cls-15" d="M620.21,400.9,759.64,255.44l.05,0,0,0,0,0,.05,0L620.33,400.89h-.12"/>
            <path class="cls-16" d="M620.33,400.89l139.5-145.54.07,0,.06,0,.07,0,.06,0L620.49,400.88h-.16"/>
            <path class="cls-17" d="M620.49,400.88l139.6-145.64.07,0,.06,0,.07,0,.07,0L620.66,400.86h-.17"/>
            <path class="cls-18" d="M620.66,400.86l139.7-145.75.07,0,.06,0,.07,0,.07,0L620.83,400.84h-.17"/>
            <path class="cls-4" d="M620.83,400.84,760.63,255l.1-.05.1,0,.1-.05.11,0-139.95,146h-.26"/>
            <path class="cls-5" d="M621.09,400.8,761,254.8l.1-.05.11-.05.11,0,.11-.05L621.37,400.76h-.28"/>
            <path class="cls-6" d="M621.37,400.76,761.47,254.6l.17-.08.18-.09.17-.08.18-.08L621.83,400.68l-.12,0-.11,0-.12,0-.11,0"/>
            <path class="cls-7" d="M621.83,400.68,762.17,254.27l.26-.13.27-.13.26-.13.27-.13L622.54,400.53l-.18,0-.18,0-.18,0-.17,0"/>
            <path class="cls-19" d="M622.54,400.53,763.23,253.75l.53-.27.54-.27.52-.27.52-.27L624,400.12l-.37.12-.37.1-.37.1-.36.09"/>
            <path class="cls-20" d="M624,400.12,765.34,252.67c.72-.37,1.41-.75,2.07-1.11s1.29-.73,1.87-1.08,1.11-.67,1.58-1,.89-.6,1.24-.86L629.43,397.46a11.35,11.35,0,0,1-1.14.78c-.42.25-.86.49-1.32.71s-1,.44-1.45.64-1,.37-1.51.53"/>
          </g>
        </g>
      </g>
      <g class="cls-2">
        <g class="cls-70">
          <g class="cls-2">
            <path class="cls-9" d="M758.29,256l-88.69,0h0l88.8,0h-.09"/>
            <path class="cls-23" d="M758.38,256l-88.8,0h0v0l88.93,0h0l0,0h0"/>
            <path class="cls-24" d="M758.49,255.94l-88.93,0h0l89.07,0h-.06l0,0h0"/>
            <path class="cls-25" d="M758.61,255.89l-89.07,0v0h0l89.21,0h-.06l0,0h0"/>
            <path class="cls-26" d="M758.73,255.84l-89.21,0v0h0l89.34,0h-.06l0,0h0"/>
            <path class="cls-27" d="M758.84,255.79l-89.34,0v0h0l89.47,0h-.06l0,0h0"/>
            <path class="cls-28" d="M759,255.74l-89.47,0,0,0v-.11l89.86,0-.09,0-.08,0-.09,0-.08,0"/>
            <path class="cls-27" d="M759.3,255.59l-89.86,0v-.1l90.12,0-.06,0-.06,0,0,0-.06,0"/>
            <path class="cls-26" d="M759.53,255.49l-90.12,0v-.11l90.38,0-.06,0-.06,0-.06,0-.05,0"/>
            <path class="cls-25" d="M759.76,255.39l-90.38,0v-.11l90.66,0-.07,0-.06,0-.07,0-.06,0"/>
            <path class="cls-24" d="M760,255.27l-90.66,0v-.14l91,0-.08,0-.07,0-.08,0-.07,0"/>
            <path class="cls-23" d="M760.32,255.13l-91,0V255l91.3,0-.07,0-.08,0-.07,0-.07,0"/>
            <path class="cls-9" d="M760.61,255l-91.3,0v-.17l91.68,0-.09,0-.09,0-.09,0-.09,0"/>
            <path class="cls-10" d="M761,254.83l-91.68,0v-.17l92.06,0-.1.05-.09,0-.09,0-.09,0"/>
            <path class="cls-11" d="M761.34,254.66l-92.06,0v-.21l92.5,0-.11.06-.11.05-.1.05-.11,0"/>
            <path class="cls-12" d="M761.77,254.45l-92.5,0v-.23l93,0-.12.05-.12.06-.12.06-.12,0"/>
            <path class="cls-13" d="M762.25,254.23l-93,0V254l93.59,0-.15.07-.16.08-.15.07-.16.08"/>
            <path class="cls-14" d="M762.87,253.93l-93.59,0a.28.28,0,0,0,0-.09.28.28,0,0,0,0-.09.28.28,0,0,0,0-.09s0-.06,0-.09l94.28,0-.18.09-.19.09-.18.09-.19.1"/>
            <path class="cls-15" d="M763.61,253.56l-94.28,0s0-.08,0-.12l0-.12a.43.43,0,0,1,0-.11.5.5,0,0,0,0-.12l95.13,0-.23.12-.23.11-.24.12-.23.12"/>
            <path class="cls-16" d="M764.54,253.09l-95.13,0a.94.94,0,0,0,0-.16.75.75,0,0,0,0-.16c0-.05,0-.1,0-.16l.05-.15,96.17,0-.3.15-.31.16-.3.16-.31.16"/>
            <path class="cls-17" d="M765.76,252.46l-96.17,0,.07-.22.09-.21a1.8,1.8,0,0,1,.08-.21l.1-.21,97.39,0-.38.21-.39.21-.4.21-.39.22"/>
            <path class="cls-18" d="M767.32,251.61l-97.39,0c0-.09.09-.19.14-.28l.15-.28c0-.09.11-.18.17-.27s.11-.18.17-.27l98.68,0-.46.27-.47.27-.49.28-.5.28"/>
            <path class="cls-4" d="M769.24,250.51l-98.68,0,.24-.34c.09-.11.17-.22.26-.32l.28-.32.3-.3,99.62,0-.45.3-.49.32-.53.32-.55.34"/>
            <path class="cls-5" d="M771.26,249.23l-99.62,0c.05-.05.11-.1.16-.16L672,249l.17-.15.19-.14,99.76,0a1.33,1.33,0,0,0-.19.14l-.21.15-.21.15-.23.16"/>
          </g>
        </g>
      </g>
    </g>
  </g>
</svg>
