<?xml version="1.0" encoding="UTF-8" standalone="no"?>
<!DOCTYPE svg PUBLIC "-//W3C//DTD SVG 1.1//EN" "http://www.w3.org/Graphics/SVG/1.1/DTD/svg11.dtd">
<svg version="1.1" xmlns="http://www.w3.org/2000/svg" xmlns:xlink="http://www.w3.org/1999/xlink" preserveAspectRatio="xMidYMid meet" viewBox="0 0 152 252" width="152" height="252"><defs><path d="M0 0L152 0L152 252L0 252L0 0Z" id="c4AMvLWqDq"></path><path d="M20 20L132 20L132 232L20 232L20 20Z" id="c2xYLeikMT"></path><path d="M20 20L0 0" id="d2P3ifnD2o"></path><path d="M152 0L132 20" id="b2Orc6xXG3"></path><path d="M152 252L132 232" id="d1kOfYycvu"></path><path d="M20 232L0 252" id="b1Uza5U1Ox"></path><path d="M35 35L117 35L117 217L35 217L35 35Z" id="gfpRHrlGh"></path><path d="M35.32 35.44L20.25 20.38" id="a6cuhAxZa"></path><path d="M131.75 20.38L116.38 35.44" id="f2GEHRtRso"></path><path d="M131.45 231.62L116.98 216.56" id="b2E71ADZJ2"></path><path d="M35.09 216.56L19.92 232.31" id="j11QmzwCFX"></path><path d="M121.13 111.22L125.88 111.22L125.88 140.78L121.13 140.78L121.13 111.22Z" id="ggbbPKw5z"></path><path d="M102.67 123.33L123.5 123.33L123.5 128.67L102.67 128.67L102.67 123.33Z" id="b2yaVXORiP"></path></defs><g><g><g><use xlink:href="#c4AMvLWqDq" opacity="1" fill="#ffffff" fill-opacity="1"></use><g><use xlink:href="#c4AMvLWqDq" opacity="1" fill-opacity="0" stroke="#000000" stroke-width="1" stroke-opacity="1"></use></g></g><g><use xlink:href="#c2xYLeikMT" opacity="1" fill="#818181" fill-opacity="1"></use><g><use xlink:href="#c2xYLeikMT" opacity="1" fill-opacity="0" stroke="#121210" stroke-width="1" stroke-opacity="1"></use></g></g><g><g><use xlink:href="#d2P3ifnD2o" opacity="1" fill-opacity="0" stroke="#121210" stroke-width="1" stroke-opacity="1"></use></g></g><g><g><use xlink:href="#b2Orc6xXG3" opacity="1" fill-opacity="0" stroke="#121210" stroke-width="1" stroke-opacity="1"></use></g></g><g><g><use xlink:href="#d1kOfYycvu" opacity="1" fill-opacity="0" stroke="#121210" stroke-width="1" stroke-opacity="1"></use></g></g><g><g><use xlink:href="#b1Uza5U1Ox" opacity="1" fill-opacity="0" stroke="#121210" stroke-width="1" stroke-opacity="1"></use></g></g><g><use xlink:href="#gfpRHrlGh" opacity="1" fill="#2ac7e6" fill-opacity="1"></use><g><use xlink:href="#gfpRHrlGh" opacity="1" fill-opacity="0" stroke="#000000" stroke-width="1" stroke-opacity="1"></use></g></g><g><g><use xlink:href="#a6cuhAxZa" opacity="1" fill-opacity="0" stroke="#161517" stroke-width="1" stroke-opacity="1"></use></g></g><g><g><use xlink:href="#f2GEHRtRso" opacity="1" fill-opacity="0" stroke="#161517" stroke-width="1" stroke-opacity="1"></use></g></g><g><g><use xlink:href="#b2E71ADZJ2" opacity="1" fill-opacity="0" stroke="#161517" stroke-width="1" stroke-opacity="1"></use></g></g><g><g><use xlink:href="#j11QmzwCFX" opacity="1" fill-opacity="0" stroke="#161517" stroke-width="1" stroke-opacity="1"></use></g></g><g><use xlink:href="#ggbbPKw5z" opacity="1" fill="#ffffff" fill-opacity="1"></use><g><use xlink:href="#ggbbPKw5z" opacity="1" fill-opacity="0" stroke="#000000" stroke-width="1" stroke-opacity="1"></use></g></g><g><use xlink:href="#b2yaVXORiP" opacity="1" fill="#ffffff" fill-opacity="1"></use><g><use xlink:href="#b2yaVXORiP" opacity="1" fill-opacity="0" stroke="#000000" stroke-width="1" stroke-opacity="1"></use></g></g></g></g></svg>