<svg xmlns="http://www.w3.org/2000/svg" viewBox="0 0 800 800">
  <defs>
    <style>
      .cls-1 {
        fill: #d2691e;
      }
    </style>
  </defs>
  <g id="Слой_2" data-name="Слой 2">
    <g>
      <path class="cls-1" d="M254.92,342.74,421.53,176.13a72.47,72.47,0,0,0,0-102.49l-3.42-3.41a72.46,72.46,0,0,0-102.49,0L43.11,342.74a72.47,72.47,0,0,0,0,102.49L315.62,717.74a72.46,72.46,0,0,0,102.49,0l3.42-3.41a72.47,72.47,0,0,0,0-102.49L254.92,445.23A72.47,72.47,0,0,1,254.92,342.74Z"/>
      <path class="cls-1" d="M591,353.89,757.57,187.28a72.47,72.47,0,0,0,0-102.49l-3.42-3.42a72.47,72.47,0,0,0-102.49,0L379.15,353.89a72.46,72.46,0,0,0,0,102.49L651.66,728.89a72.47,72.47,0,0,0,102.49,0l3.42-3.42a72.47,72.47,0,0,0,0-102.49L591,456.38A72.47,72.47,0,0,1,591,353.89Z"/>
    </g>
  </g>
</svg>
