<?xml version="1.0" encoding="utf-8"?>
<!-- Generator: Adobe Illustrator 25.0.0, SVG Export Plug-In . SVG Version: 6.00 Build 0)  -->
<svg version="1.1" id="Layer_1" xmlns="http://www.w3.org/2000/svg" xmlns:xlink="http://www.w3.org/1999/xlink" x="0px" y="0px"
	 viewBox="0 0 152.6 422.6" style="enable-background:new 0 0 152.6 422.6;" xml:space="preserve">
<style type="text/css">
	.st0{fill:#FFFFFF;}
	.st1{fill:#08FFEA;}
	.st2{fill:none;stroke:#000000;stroke-width:0.8;stroke-miterlimit:10;}
	.st3{fill:#FFFFFF;stroke:#000000;stroke-miterlimit:10;}
	.st4{fill:none;stroke:#000000;stroke-width:0.3;stroke-miterlimit:10;}
	.st5{fill:#FFFFFF;stroke:#000000;stroke-width:0.8;stroke-miterlimit:10;}
</style>
<g>
	<path class="st0" d="M0.6,0.6h151.3v421.3H0.6V0.6z"/>
	<path d="M151.3,1.3v420H1.3V1.3H151.3 M152.6,0H0v422.6h152.6V0z"/>
	<path class="st0" d="M7.9,9.4h136.3v404.2H7.9V9.4z"/>
	<path d="M143.7,9.9v403.2H8.4V9.9H143.7 M144.7,8.9H7.4v405.2h137.3V8.9z"/>
	<path class="st1" d="M22.7,23.8h107.2v374.7H22.7V23.8z"/>
	<path d="M129.4,24.3V398H23.2V24.3H129.4 M130.4,23.3H22.2V399h108.2V23.3z"/>
	<path class="st2" d="M19,209.3l0.1-8.1h-7.6v19.9h7.6v-8.2"/>
	<path class="st3" d="M151.3,1.3l-7.6,8.6l-14.2,14.4 M23.2,24.3L8.4,9.9L1.3,1.3 M1.3,421.3l7.1-8.2L23.2,398 M129.4,398l14.2,15.1
		l7.6,8.2 M23.2,252.4h106.2v17.2H23.2V252.4z"/>
</g>
<g>
	<rect x="23.5" y="269.8" class="st0" width="106.2" height="128.5"/>
	<path d="M129.4,270.1v128H23.7v-128H129.4 M129.9,269.6H23.2v129h106.7V269.6L129.9,269.6z"/>
</g>
<path class="st4" d="M129.4,24.3L23.2,211.2 M56.5,269.6l73,128.4 M23.2,211.2l23.6,41.6"/>
<path class="st5" d="M15.3,209.3h14.8v3.6H15.3C15.3,212.9,15.3,209.3,15.3,209.3z"/>
</svg>
