<?xml version="1.0" encoding="utf-8"?>
<!-- Generator: Adobe Illustrator 25.0.0, SVG Export Plug-In . SVG Version: 6.00 Build 0)  -->
<svg version="1.1" id="Layer_1" xmlns="http://www.w3.org/2000/svg" xmlns:xlink="http://www.w3.org/1999/xlink" x="0px" y="0px"
	 viewBox="0 0 125 290" style="enable-background:new 0 0 125 290;" xml:space="preserve">
<style type="text/css">
	.st0{display:none;}
	.st1{display:inline;}
	.st2{fill:#FFFFFF;}
	.st3{fill:none;stroke:#000000;stroke-width:0.5;stroke-linecap:round;stroke-linejoin:round;}
	.st4{fill:none;stroke:#000000;stroke-width:2;stroke-linejoin:round;}
	.st5{fill:none;stroke:#000000;stroke-width:2;stroke-miterlimit:1;}
	.st6{fill:none;stroke:#000000;stroke-width:2;stroke-linejoin:round;stroke-miterlimit:1;}
	.st7{display:inline;fill:none;stroke:#000000;stroke-width:2;}
	.st8{fill:#FFFFFF;stroke:#000000;}
	.st9{fill:#FFFFFF;stroke:#000000;stroke-width:2;}
	.st10{fill:none;stroke:#000000;stroke-width:2;}
	.st11{display:inline;fill:#FFFFFF;stroke:#000000;}
	.st12{display:inline;fill:none;stroke:#000000;stroke-width:2;stroke-miterlimit:1;}
	.st13{display:inline;fill:none;stroke:#BF1F40;stroke-miterlimit:1;}
	.st14{display:inline;fill:#FFFFFF;stroke:#000000;stroke-width:2;stroke-miterlimit:1;}
	.st15{fill:none;stroke:#231F20;stroke-width:2;}
	.st16{fill:#FFFFFF;stroke:#231F20;stroke-width:2;}
	.st17{fill:#08FFEA;stroke:#231F20;stroke-width:2;}
	.st18{display:inline;fill:none;}
</style>
<g id="Layer_1_1_" class="st0">
	
		<image style="display:inline;overflow:visible;enable-background:new    ;" width="370" height="290" xlink:href="56ACC33C.jpeg"  transform="matrix(1.0135 0 0 1 1.700000e-03 551.8896)">
	</image>
</g>
<g id="Layer_3" class="st0">
	
		<image style="display:inline;overflow:visible;enable-background:new    ;" width="380" height="290" xlink:href="56ACC33C.jpeg"  transform="matrix(0.9868 0 0 1 -2.441406e-04 551.8896)">
	</image>
</g>
<g id="fff" class="st0">
	<g class="st1">
		<g id="XMLID_1_">
			<g>
				<g>
					<polygon class="st2" points="240.5,826.8 259.5,826.8 359.8,826.8 375,841.9 0,841.9 14.8,826.8 115.5,826.8 134.5,826.8 					
						"/>
					<rect x="259.5" y="566.8" class="st2" width="100.3" height="260"/>
					<polygon class="st2" points="259.5,566.8 259.5,826.8 240.5,826.8 240.5,567.2 240.5,566.8 					"/>
					<polygon class="st2" points="240.5,567.2 240.5,826.8 134.5,826.8 134.5,566.8 240.5,566.8 					"/>
					<polygon class="st2" points="134.5,566.8 134.5,826.8 115.5,826.8 115.5,567.2 115.5,566.8 					"/>
					<polygon class="st2" points="115.5,567.2 115.5,826.8 14.8,826.8 14.8,566.8 115.5,566.8 					"/>
					<polygon class="st2" points="14.8,566.8 14.8,826.8 0,841.9 0,551.9 					"/>
					<polygon class="st2" points="375,551.9 359.8,566.8 259.5,566.8 240.5,566.8 134.5,566.8 115.5,566.8 14.8,566.8 0,551.9 					
						"/>
					<polygon class="st2" points="375,551.9 375,841.9 359.8,826.8 359.8,566.8 					"/>
				</g>
				<g>
					<polyline class="st3" points="0,551.9 375,551.9 375,841.9 0,841.9 0,551.9 					"/>
					<line class="st3" x1="359.8" y1="566.8" x2="375" y2="551.9"/>
					<line class="st3" x1="14.8" y1="826.8" x2="0" y2="841.9"/>
					<line class="st3" x1="359.8" y1="826.8" x2="375" y2="841.9"/>
					<line class="st3" x1="14.8" y1="566.8" x2="0" y2="551.9"/>
					<polyline class="st3" points="14.8,566.8 115.5,566.8 134.5,566.8 240.5,566.8 259.5,566.8 359.8,566.8 359.8,826.8 
						259.5,826.8 240.5,826.8 134.5,826.8 115.5,826.8 14.8,826.8 14.8,566.8 					"/>
					<line class="st3" x1="259.5" y1="566.8" x2="259.5" y2="826.8"/>
					<polyline class="st3" points="240.5,567.2 240.5,826.8 240.5,827.2 					"/>
					<line class="st3" x1="134.5" y1="566.8" x2="134.5" y2="826.8"/>
					<polyline class="st3" points="115.5,567.2 115.5,826.8 115.5,827.2 					"/>
				</g>
			</g>
			<g>
				<g>
					<polygon class="st4" points="240.5,826.8 259.5,826.8 359.8,826.8 375,841.9 0,841.9 14.8,826.8 115.5,826.8 134.5,826.8 					
						"/>
					<rect x="259.5" y="566.8" class="st4" width="100.3" height="260"/>
					<polygon class="st4" points="259.5,566.8 259.5,826.8 240.5,826.8 240.5,567.2 240.5,566.8 					"/>
					<polygon class="st4" points="240.5,567.2 240.5,826.8 134.5,826.8 134.5,566.8 240.5,566.8 					"/>
					<polygon class="st4" points="134.5,566.8 134.5,826.8 115.5,826.8 115.5,567.2 115.5,566.8 					"/>
					<polygon class="st4" points="115.5,567.2 115.5,826.8 14.8,826.8 14.8,566.8 115.5,566.8 					"/>
					<polygon class="st4" points="14.8,566.8 14.8,826.8 0,841.9 0,551.9 					"/>
					<polygon class="st4" points="375,551.9 359.8,566.8 259.5,566.8 240.5,566.8 134.5,566.8 115.5,566.8 14.8,566.8 0,551.9 					
						"/>
					<polygon class="st4" points="375,551.9 375,841.9 359.8,826.8 359.8,566.8 					"/>
				</g>
				<g>
					<polyline class="st4" points="0,551.9 375,551.9 375,841.9 0,841.9 0,551.9 					"/>
					<line class="st4" x1="359.8" y1="566.8" x2="375" y2="551.9"/>
					<line class="st4" x1="14.8" y1="826.8" x2="0" y2="841.9"/>
					<line class="st4" x1="359.8" y1="826.8" x2="375" y2="841.9"/>
					<line class="st4" x1="14.8" y1="566.8" x2="0" y2="551.9"/>
					<polyline class="st4" points="14.8,566.8 115.5,566.8 134.5,566.8 240.5,566.8 259.5,566.8 359.8,566.8 359.8,826.8 
						259.5,826.8 240.5,826.8 134.5,826.8 115.5,826.8 14.8,826.8 14.8,566.8 					"/>
					<line class="st4" x1="259.5" y1="566.8" x2="259.5" y2="826.8"/>
					<polyline class="st4" points="240.5,567.2 240.5,826.8 240.5,827.2 					"/>
					<line class="st4" x1="134.5" y1="566.8" x2="134.5" y2="826.8"/>
					<polyline class="st4" points="115.5,567.2 115.5,826.8 115.5,827.2 					"/>
				</g>
			</g>
		</g>
	</g>
</g>
<g id="sss" class="st0">
	<g class="st1">
		<g id="XMLID_3_">
			<g>
				<polygon class="st2" points="354.4,820.5 370,837.7 254.2,837.7 271.1,820.5 				"/>
				<polygon class="st2" points="370,555.8 370,556 354,574.4 354,573.9 270.4,573.9 254.2,555.8 				"/>
				<polygon class="st2" points="370,556 370,837.7 354.4,820.5 354,574.4 				"/>
				<polygon class="st2" points="271.3,708.5 271.1,820.5 254.2,837.7 254.2,555.8 270.4,573.9 271.2,684.7 257.8,684.7 
					257.8,708.5 				"/>
				<polygon class="st2" points="271.3,702.1 271.3,708.5 257.8,708.5 257.8,684.7 271.2,684.7 271.2,693.8 263.5,693.8 
					263.5,702.1 				"/>
				<polygon class="st2" points="280.8,701.7 280.8,702 271.3,702.1 263.5,702.1 263.5,693.8 271.2,693.8 280.8,693.8 				"/>
				<polygon class="st2" points="354,574.4 354.4,820.5 271.1,820.5 271.3,708.5 271.4,708.5 271.3,702.1 280.8,702 280.8,701.7 
					280.8,693.8 271.2,693.8 271.2,684.7 271.2,684.7 270.4,573.9 354,573.9 				"/>
			</g>
			<g>
				<polyline class="st5" points="257.8,708.5 257.8,684.7 271.2,684.7 271.2,684.7 271.2,693.8 280.8,693.8 280.8,701.7 280.8,702 
					271.3,702.1 271.4,708.5 271.3,708.5 257.8,708.5 				"/>
				<polygon class="st5" points="370,556 370,555.8 254.2,555.8 254.2,837.7 370,837.7 				"/>
				<polygon class="st6" points="271.2,693.8 263.5,693.8 263.5,702.1 271.3,702.1 271.3,708.5 271.1,820.5 354.4,820.5 354,574.4 
					354,573.9 270.4,573.9 271.2,684.7 				"/>
				<line class="st5" x1="370" y1="837.7" x2="354.4" y2="820.5"/>
				<line class="st5" x1="271.1" y1="820.5" x2="254.2" y2="837.7"/>
				<line class="st5" x1="270.4" y1="573.9" x2="254.2" y2="555.8"/>
				<line class="st5" x1="354" y1="574.4" x2="370" y2="556"/>
			</g>
		</g>
	</g>
	<line class="st7" x1="23.6" y1="573.5" x2="7.5" y2="556.2"/>
	<g class="st1">
		<g>
			<g id="XMLID_2_">
				<g>
					<polygon class="st8" points="117.3,683.7 117.3,707.5 105.9,707.5 105.9,700.5 113.4,700.5 113.4,692.6 105.9,692.6 
						105.9,683.7 					"/>
					<polygon class="st8" points="113.4,692.6 113.4,700.5 105.9,700.5 105.9,697.6 110.4,697.6 110.4,695.6 105.9,695.6 
						105.9,692.6 					"/>
					<polygon class="st8" points="105.9,697.6 105.9,700.5 94.6,700.5 94.6,692.6 104.9,692.6 104.9,695.6 96.8,695.6 96.8,697.6 
											"/>
				</g>
				<g>
					<rect x="5.3" y="555.5" class="st9" width="115.8" height="281.9"/>
					<polyline class="st9" points="104,700.5 104,820.2 20.9,820.2 21.3,573.5 104,572.8 104,692.6 					"/>
					<polygon class="st9" points="105.9,692.6 105.9,683.7 117.3,683.7 117.3,707.5 105.9,707.5 105.9,700.5 104,700.5 94.6,700.5 
						94.6,692.6 104,692.6 					"/>
					<polyline class="st10" points="105.9,692.6 113.4,692.6 113.4,700.5 105.9,700.5 					"/>
				</g>
			</g>
		</g>
		<line class="st10" x1="121" y1="837.4" x2="104" y2="820.2"/>
		<line class="st10" x1="20.9" y1="820.2" x2="5.3" y2="837.4"/>
		<line class="st10" x1="21.4" y1="573.5" x2="5.3" y2="555.5"/>
		<line class="st10" x1="103.9" y1="572.8" x2="121" y2="555.6"/>
	</g>
	<line class="st7" x1="228.6" y1="573.8" x2="245.8" y2="556.6"/>
	<line class="st7" x1="146.1" y1="574.5" x2="130" y2="557.2"/>
	<polygon class="st11" points="133.8,684.7 133.8,708.5 145.2,708.5 145.2,701.5 137.7,701.5 137.7,693.6 145.2,693.6 145.2,684.7 	
		"/>
	<polygon class="st11" points="137.7,693.6 137.7,701.5 145.2,701.5 145.2,698.6 140.6,698.6 140.7,696.6 145.2,696.6 145.2,693.6 	
		"/>
	<polygon class="st11" points="145.2,698.6 145.2,701.5 156.4,701.5 156.4,693.6 146.2,693.6 146.2,696.6 154.2,696.6 154.2,698.6 	
		"/>
	<g class="st1">
		<rect x="129.6" y="555.5" class="st9" width="115.8" height="281.9"/>
		<polyline class="st9" points="146.6,700.5 146.4,820.2 229.8,820.2 229.3,573.5 145.7,573.5 146.6,692.6 		"/>
		<polygon class="st9" points="144.8,692.6 144.8,683.7 133.4,683.7 133.4,707.5 144.8,707.5 144.8,700.5 146.6,700.5 156,700.5 
			156,692.6 146.6,692.6 		"/>
		<polyline class="st10" points="144.8,692.6 137.3,692.6 137.3,700.5 144.8,700.5 		"/>
		<line class="st10" x1="245.4" y1="837.4" x2="229.8" y2="820.2"/>
		<line class="st10" x1="146.4" y1="820.2" x2="129.6" y2="837.4"/>
		<line class="st10" x1="145.7" y1="573.5" x2="129.6" y2="555.5"/>
		<line class="st10" x1="229.3" y1="574.1" x2="245.4" y2="555.6"/>
	</g>
	<rect y="551.5" class="st12" width="375" height="290.4"/>
	<line class="st13" x1="124.9" y1="551.5" x2="124.9" y2="841.5"/>
	<line class="st13" x1="250" y1="551.5" x2="250" y2="841.5"/>
	<path class="st14" d="M0,551.5v290.4V551.5z"/>
</g>
<g id="s3" class="st0">
	<g class="st1">
		<g id="XMLID_5_">
			<g>
				<polygon class="st2" points="370,556 370,837.7 354.4,820.5 354,574.4 				"/>
				<polygon class="st2" points="370,555.8 370,556 354,574.4 354,573.9 270.4,573.9 254.2,555.8 				"/>
				<polygon class="st2" points="354.4,820.5 370,837.7 254.2,837.7 271.1,820.5 				"/>
				<polygon class="st2" points="354,574.4 354.4,820.5 271.1,820.5 271.3,708.5 271.4,708.5 271.3,702.1 280.8,702 280.8,701.7 
					280.8,693.8 271.2,693.8 271.2,684.7 271.2,684.7 270.4,573.9 354,573.9 				"/>
				<polygon class="st2" points="280.8,701.7 280.8,702 271.3,702.1 263.5,702.1 263.5,693.8 271.2,693.8 280.8,693.8 				"/>
				<polygon class="st2" points="271.3,702.1 271.3,708.5 257.8,708.5 257.8,684.7 271.2,684.7 271.2,693.8 263.5,693.8 
					263.5,702.1 				"/>
				<polygon class="st2" points="271.3,708.5 271.1,820.5 254.2,837.7 254.2,555.8 270.4,573.9 271.2,684.7 257.8,684.7 
					257.8,708.5 				"/>
			</g>
			<g>
				<polyline class="st5" points="257.8,708.5 257.8,684.7 271.2,684.7 271.2,684.7 271.2,693.8 280.8,693.8 280.8,701.7 280.8,702 
					271.3,702.1 271.4,708.5 271.3,708.5 257.8,708.5 				"/>
				<polygon class="st5" points="370,556 370,555.8 254.2,555.8 254.2,837.7 370,837.7 				"/>
				<polygon class="st6" points="271.2,693.8 263.5,693.8 263.5,702.1 271.3,702.1 271.3,708.5 271.1,820.5 354.4,820.5 354,574.4 
					354,573.9 270.4,573.9 271.2,684.7 				"/>
				<line class="st5" x1="370" y1="837.7" x2="354.4" y2="820.5"/>
				<line class="st5" x1="271.1" y1="820.5" x2="254.2" y2="837.7"/>
				<line class="st5" x1="270.4" y1="573.9" x2="254.2" y2="555.8"/>
				<line class="st5" x1="354" y1="574.4" x2="370" y2="556"/>
			</g>
		</g>
	</g>
	<polyline class="st12" points="250,551.4 375,551.5 375,841.9 250,841.8 	"/>
</g>
<g id="s2">
	<line class="st15" x1="103.7" y1="22.3" x2="120.8" y2="5.1"/>
	<line class="st15" x1="21.2" y1="23" x2="5.1" y2="5.7"/>
	<polygon class="st16" points="8.8,133.2 8.8,157.1 20.2,157.1 20.2,150.1 12.7,150.1 12.7,142.1 20.2,142.1 20.2,133.2 	"/>
	<polygon class="st16" points="12.7,142.1 12.7,150.1 20.2,150.1 20.2,147.1 15.7,147.1 15.7,145.1 20.2,145.1 20.2,142.1 	"/>
	<polygon class="st16" points="20.2,147.1 20.2,150.1 31.5,150.1 31.5,142.1 21.2,142.1 21.2,145.1 29.3,145.1 29.3,147.1 	"/>
	<g>
		<rect x="4.7" y="4" class="st16" width="115.8" height="281.9"/>
		<polyline class="st17" points="21.7,149.1 21.5,268.7 104.8,268.7 104.4,22 20.8,22 21.7,141.1 		"/>
		<polygon class="st16" points="19.8,141.1 19.8,132.2 8.5,132.2 8.5,156.1 19.8,156.1 19.8,149.1 21.7,149.1 31.1,149.1 
			31.1,141.1 21.7,141.1 		"/>
		<polyline class="st15" points="19.8,141.1 12.3,141.1 12.3,149.1 19.8,149.1 		"/>
		<line class="st15" x1="120.5" y1="285.9" x2="104.8" y2="268.7"/>
		<line class="st15" x1="21.5" y1="268.7" x2="4.7" y2="285.9"/>
		<line class="st15" x1="20.8" y1="22" x2="4.7" y2="4"/>
		<line class="st15" x1="104.4" y1="22.6" x2="120.5" y2="4.1"/>
	</g>
</g>
<g id="s1" class="st0">
	<line class="st7" x1="23.6" y1="573.5" x2="7.5" y2="556.2"/>
	<g class="st1">
		<g>
			<g id="XMLID_4_">
				<g>
					<polygon class="st8" points="117.3,683.7 117.3,707.5 105.9,707.5 105.9,700.5 113.4,700.5 113.4,692.6 105.9,692.6 
						105.9,683.7 					"/>
					<polygon class="st8" points="113.4,692.6 113.4,700.5 105.9,700.5 105.9,697.6 110.4,697.6 110.4,695.6 105.9,695.6 
						105.9,692.6 					"/>
					<polygon class="st8" points="105.9,697.6 105.9,700.5 94.6,700.5 94.6,692.6 104.9,692.6 104.9,695.6 96.8,695.6 96.8,697.6 
											"/>
				</g>
				<g>
					<rect x="5.3" y="555.5" class="st9" width="115.8" height="281.9"/>
					<polyline class="st9" points="104,700.5 104,820.2 20.9,820.2 21.3,573.5 104,572.8 104,692.6 					"/>
					<polygon class="st9" points="105.9,692.6 105.9,683.7 117.3,683.7 117.3,707.5 105.9,707.5 105.9,700.5 104,700.5 94.6,700.5 
						94.6,692.6 104,692.6 					"/>
					<polyline class="st10" points="105.9,692.6 113.4,692.6 113.4,700.5 105.9,700.5 					"/>
				</g>
			</g>
		</g>
		<line class="st10" x1="121" y1="837.4" x2="104" y2="820.2"/>
		<line class="st10" x1="20.9" y1="820.2" x2="5.3" y2="837.4"/>
		<line class="st10" x1="21.4" y1="573.5" x2="5.3" y2="555.5"/>
		<line class="st10" x1="103.9" y1="572.8" x2="121" y2="555.6"/>
	</g>
	<polyline class="st12" points="124.9,841.5 0,841.9 0,551.5 124.9,551.5 	"/>
	<path class="st14" d="M0,551.5v290.4V551.5z"/>
	<line class="st18" x1="124.9" y1="551.9" x2="124.9" y2="841.9"/>
</g>
</svg>
