<?xml version="1.0" encoding="utf-8"?>
<!-- Generator: Adobe Illustrator 25.0.0, SVG Export Plug-In . SVG Version: 6.00 Build 0)  -->
<svg version="1.1" id="Layer_1" xmlns="http://www.w3.org/2000/svg" xmlns:xlink="http://www.w3.org/1999/xlink" x="0px" y="0px"
	 viewBox="0 0 285 420" style="enable-background:new 0 0 285 420;" xml:space="preserve">
<g id="ff-r" style="display:none;">
	<g style="display:inline;">
		<rect x="150.5" y="0.5" style="fill:#FFFFFF;" width="249" height="289"/>
		<path d="M399,1v288H151V1H399 M400,0H150v290h250V0L400,0z"/>
	</g>
	<g style="display:inline;">
		<rect x="165.369" y="15.361" style="fill:#FFFFFF;" width="219.262" height="259"/>
		<path d="M384.131,15.861v258H165.869v-258L384.131,15.861 M385.131,14.861H164.869v260h220.262L385.131,14.861L385.131,14.861z"/>
	</g>
	
		<rect x="265.562" y="15.361" style="display:inline;fill:#FFFFFF;stroke:#000000;stroke-miterlimit:10;" width="17.742" height="258.571"/>
	<line style="display:inline;fill:none;stroke:#000000;stroke-miterlimit:10;" x1="150" y1="0" x2="164.869" y2="14.861"/>
	<line style="display:inline;fill:none;stroke:#000000;stroke-miterlimit:10;" x1="400" y1="0" x2="385.131" y2="14.861"/>
	<line style="display:inline;fill:none;stroke:#000000;stroke-miterlimit:10;" x1="400" y1="290" x2="385.131" y2="274.861"/>
	<line style="display:inline;fill:none;stroke:#000000;stroke-miterlimit:10;" x1="164.869" y1="274.861" x2="150" y2="290"/>
</g>
<g id="Layer_3">
	<g>
		<g id="f">
			<g id="s1_2_" style="display:none;">
				
					<line style="display:inline;fill:none;stroke:#000000;stroke-linejoin:round;stroke-miterlimit:10;" x1="173.787" y1="22.011" x2="157.667" y2="4.713"/>
				<g style="display:inline;">
					<g>
						<g id="XMLID_11_">
							<g>
								<g>
									<path style="fill:#FFFFFF;" d="M256.5,155.5v-6h7.5c0.276,0,0.5-0.224,0.5-0.5v-8c0-0.276-0.224-0.5-0.5-0.5h-7.5v-8h10v23
										H256.5z"/>
									<path d="M266,133v22h-9v-5h7c0.552,0,1-0.448,1-1v-8c0-0.552-0.448-1-1-1h-7v-7H266 M267,132h-11v9h8v8h-8v7h11V132
										L267,132z"/>
								</g>
								<g>
									<path style="fill:#FFFFFF;" d="M256.5,148.5v-2.003l4.133-0.026c0.134-0.001,0.262-0.056,0.355-0.151
										c0.093-0.096,0.145-0.226,0.142-0.359l-0.043-1.97c-0.006-0.272-0.228-0.489-0.5-0.489H256.5v-2h7v7h-7V148.5z"/>
									<path d="M263,142v6h-6v-1.006l3.636-0.023c0.268-0.002,0.524-0.111,0.711-0.303s0.289-0.451,0.283-0.719l-0.043-1.97
										c-0.012-0.544-0.456-0.978-1-0.978H257v-1h6 M264,141h-8v3h4.586l0.043,1.97L256,146v3h8V141L264,141z"/>
								</g>
								<g>
									<path style="fill:#FFFFFF;" d="M245.5,148.5v-7.001l9-0.027v2.029H247c-0.276,0-0.5,0.224-0.5,0.5v2
										c0,0.275,0.223,0.499,0.499,0.5l8.501,0.028v1.972h-10V148.5z"/>
									<path d="M254,141.973V143h-7c-0.552,0-1,0.448-1,1v2c0,0.551,0.446,0.998,0.997,1l8.003,0.027V148h-9v-6.003L254,141.973
										 M255,140.97L245,141v8h11v-2.97l-9-0.03v-2h8V140.97L255,140.97z"/>
								</g>
							</g>
							<g>
								<g>
									<rect x="155.5" y="4.5" style="fill:#FFFFFF;" width="115" height="281"/>
									<path d="M270,5v280H156V5H270 M271,4H155v282h116V4L271,4z"/>
								</g>
								<polyline style="fill:#FFFFFF;stroke:#000000;stroke-linejoin:round;stroke-miterlimit:10;" points="254,149 254,268 
									171,268 171.458,22 254,21.291 254,141 								"/>
								<g>
									<path style="fill:#FFFFFF;" d="M256.5,155.5V149c0-0.276-0.224-0.5-0.5-0.5h-10.5v-7.942l8.613,0.939L256,141.5
										c0.276,0,0.5-0.224,0.5-0.5v-8.5h10v23H256.5z"/>
									<path d="M266,133v22h-9v-6c0-0.552-0.448-1-1-1h-1.838H246v-6.885l8.059,0.879c0.036,0.004,0.072,0.006,0.108,0.006H256
										c0.552,0,1-0.448,1-1v-8H266 M267,132h-11v9h-1.833L245,140v9h9.162H256v7h11V132L267,132z"/>
								</g>
								<polyline style="fill:#FFFFFF;stroke:#000000;stroke-linejoin:round;stroke-miterlimit:10;" points="256,141 264,141 
									264,149 256,149 								"/>
							</g>
						</g>
					</g>
					
						<line style="fill:none;stroke:#000000;stroke-linejoin:round;stroke-miterlimit:10;" x1="271.207" y1="285.505" x2="254.167" y2="268.358"/>
					
						<line style="fill:none;stroke:#000000;stroke-linejoin:round;stroke-miterlimit:10;" x1="171.047" y1="268.358" x2="155.426" y2="285.505"/>
					
						<line style="fill:none;stroke:#000000;stroke-linejoin:round;stroke-miterlimit:10;" x1="171.547" y1="22.011" x2="155.426" y2="3.964"/>
					
						<line style="fill:none;stroke:#000000;stroke-linejoin:round;stroke-miterlimit:10;" x1="254.046" y1="21.308" x2="271.207" y2="4.124"/>
				</g>
				<polyline style="display:inline;fill:#FFFFFF;stroke:#000000;stroke-linejoin:round;stroke-miterlimit:10;" points="275,290 
					150,290.389 150,0 275,0 				"/>
				<g style="display:inline;">
					<path style="fill:#FFFFFF;" d="M150,0v290V0z"/>
					<path d="M150,0v290V0z"/>
				</g>
				
					<line style="display:inline;fill:none;stroke:#000000;stroke-linejoin:round;stroke-miterlimit:10;" x1="275" y1="0" x2="275" y2="290"/>
			</g>
			<g>
				<rect x="150.5" y="0.5" style="fill:#FFFFFF;" width="134" height="289"/>
				<path d="M284,1v288H151V1H284 M285,0H150v290h135V0L285,0z"/>
			</g>
			<g>
				<rect x="166.5" y="15.5" style="fill:#FFFFFF;" width="102" height="259"/>
				<path d="M268,16v258H167V16H268 M269,15H166v260h103V15L269,15z"/>
			</g>
			<g>
				<path style="fill:#FFFFFF;" d="M269.139,274.632c-0.093-0.085-0.214-0.133-0.34-0.133h-102.61c-0.126,0-0.248,0.048-0.34,0.133
					L150.5,288.855V1.468l15.361,13.903c0.092,0.083,0.211,0.129,0.335,0.129l102.603,0.005c0.124,0,0.244-0.046,0.335-0.129
					L284.5,1.468v287.387L269.139,274.632z"/>
				<path d="M151,2.595l14.525,13.147c0.184,0.166,0.423,0.259,0.671,0.259l102.603,0.005c0.248,0,0.487-0.092,0.671-0.259
					L284,2.595v285.116l-14.522-13.445c-0.185-0.171-0.427-0.266-0.679-0.266h-102.61c-0.252,0-0.495,0.095-0.68,0.266L151,287.71
					V2.595 M285,0.341l-16.201,14.664L166.196,15L150,0.341V290l16.189-15h102.61L285,290V0.341L285,0.341z"/>
			</g>
		</g>
		<line style="fill:none;stroke:#000000;stroke-linejoin:round;stroke-miterlimit:10;" x1="269" y1="15" x2="269" y2="275"/>
		<line style="fill:none;stroke:#000000;stroke-linejoin:round;stroke-miterlimit:10;" x1="166" y1="15" x2="165.993" y2="275"/>
	</g>
</g>
<g id="door">
	<g>
		<g>
			<rect x="0.65" y="0.65" style="fill:#FFFFFF;" width="148.7" height="418.699"/>
			<path d="M148.7,1.3v417.4H1.3V1.3H148.7 M150,0H0v420h150V0L150,0z"/>
		</g>
		<g>
			<rect x="8.129" y="9.099" style="fill:#FFFFFF;" width="134.267" height="402.2"/>
			<path d="M141.896,9.598v401.2H8.629V9.598H141.896 M142.896,8.598H7.629v403.2h135.267V8.598L142.896,8.598z"/>
		</g>
		<g>
			<rect x="22.363" y="23.499" style="fill:#08FFEA;" width="105.2" height="372.733"/>
			<rect x="167" y="16" style="fill:#08FFEA;" width="101" height="258"/>
			<path d="M127.062,23.999v371.733h-104.2V23.999H127.062 M128.062,22.999h-106.2v373.733h106.2V22.999L128.062,22.999z"/>
		</g>
		<polyline style="fill:#FFFFFF;stroke:#000000;stroke-miterlimit:10;" points="0,0 7.629,8.598 21.862,22.998 		"/>
		<polyline style="fill:#FFFFFF;stroke:#000000;stroke-miterlimit:10;" points="128.062,22.998 142.896,8.598 150,0 		"/>
		<polyline style="fill:#FFFFFF;stroke:#000000;stroke-miterlimit:10;" points="150,420 142.896,411.798 128.062,396.732 		"/>
		<polyline style="fill:#FFFFFF;stroke:#000000;stroke-miterlimit:10;" points="21.862,396.732 7.629,411.798 0,420 		"/>
		
			<line style="fill:none;stroke:#000000;stroke-width:0.3;stroke-miterlimit:10;" x1="21.862" y1="22.998" x2="128.062" y2="209.865"/>
		<g>
			
				<line style="fill:none;stroke:#000000;stroke-width:0.3;stroke-miterlimit:10;" x1="104.434" y1="251.441" x2="21.862" y2="396.732"/>
		</g>
		<g>
			
				<line style="fill:none;stroke:#000000;stroke-width:0.3;stroke-miterlimit:10;" x1="128.062" y1="209.865" x2="104.434" y2="251.441"/>
		</g>
		<g>
			<rect x="121.629" y="208.398" style="fill:#FFFFFF;" width="14" height="2.8"/>
			<path d="M135.229,208.798v2h-13.2v-2h10.267H135.229 M136.029,207.998h-3.733h-11.067v3.6h14.8V207.998L136.029,207.998z"/>
		</g>
		<polyline style="fill:none;stroke:#000000;stroke-width:0.8;stroke-miterlimit:10;" points="132.296,207.998 132.229,199.932 
			139.829,199.932 139.829,219.798 132.229,219.798 132.229,211.598 		"/>
		<g>
			<rect x="21.862" y="251.132" style="fill:none;" width="106.2" height="17.2"/>
		</g>
	</g>
</g>
</svg>
