<?xml version="1.0" encoding="utf-8"?>
<!-- Generator: Adobe Illustrator 25.0.0, SVG Export Plug-In . SVG Version: 6.00 Build 0)  -->
<svg version="1.1" id="Layer_3_2_" xmlns="http://www.w3.org/2000/svg" xmlns:xlink="http://www.w3.org/1999/xlink" x="0px" y="0px"
	 viewBox="0 0 125 290" enable-background="new 0 0 125 290" xml:space="preserve">
<rect fill="#FFFFFF" stroke="#FFFFFF" stroke-width="2" stroke-linejoin="round" stroke-miterlimit="2" width="125" height="290"/>
<rect x="14.99" y="15" fill="#FFFFFF" stroke="#231F20" stroke-width="2" width="95.009" height="260"/>
<line fill="none" stroke="#FFFFFF" stroke-width="2" x1="0" y1="0" x2="14.996" y2="14.995"/>
<line fill="none" stroke="#FFFFFF" stroke-width="2" x1="125" y1="0" x2="109.999" y2="15"/>
<line fill="none" stroke="#FFFFFF" stroke-width="2" x1="125" y1="290" x2="109.999" y2="275"/>
<line fill="none" stroke="#FFFFFF" stroke-width="2" x1="0" y1="290" x2="14.99" y2="275"/>
<g id="s1_4_">
	<g>
		<g>
			<g id="XMLID_21_">
				<g>
					<polygon fill="#FFFFFF" stroke="#000000" points="116.245,132.336 116.245,156.044 104.942,156.044 104.942,149.092 
						112.392,149.092 112.392,141.195 104.942,141.195 104.942,132.336 					"/>
					<polygon fill="#FFFFFF" stroke="#000000" points="112.392,141.195 112.392,149.092 104.942,149.092 104.942,146.142 
						109.454,146.114 109.412,144.191 104.942,144.191 104.942,141.195 					"/>
					<polygon fill="#FFFFFF" stroke="#000000" points="104.942,146.142 104.942,149.092 93.768,149.092 93.768,141.236 
						103.944,141.205 103.944,144.191 95.939,144.191 95.939,146.114 					"/>
				</g>
				<g>
					<rect x="5" y="5" fill="#FFFFFF" stroke="#000000" stroke-width="2" width="115" height="280"/>
					<polyline fill="#FFFFFF" stroke="#000000" stroke-width="2" points="103.075,149.092 103.075,267.947 20.515,267.947 
						20.972,22.948 103.075,22.242 103.075,141.205 					"/>
					<polygon fill="#FFFFFF" stroke="#000000" stroke-width="2" points="104.942,141.195 104.942,132.336 116.245,132.336 
						116.245,156.044 104.942,156.044 104.942,149.092 103.075,149.092 93.768,149.092 93.768,141.236 103.075,141.205 					"/>
					<polyline fill="none" stroke="#000000" stroke-width="2" points="104.942,141.195 112.392,141.195 112.392,149.092 
						104.942,149.092 					"/>
				</g>
			</g>
		</g>
		<line fill="none" stroke="#000000" stroke-width="2" x1="120" y1="285" x2="103.075" y2="267.947"/>
		<line fill="none" stroke="#000000" stroke-width="2" x1="20.515" y1="267.947" x2="5" y2="285"/>
		<line fill="none" stroke="#000000" stroke-width="2" x1="21.011" y1="22.948" x2="5" y2="5"/>
		<line fill="none" stroke="#000000" stroke-width="2" x1="102.955" y1="22.249" x2="120" y2="5.159"/>
	</g>
</g>
</svg>
